<?xml version="1.0"?>
<svg width="1302" height="1002" viewBox="0 0 1302 1002"
  xml:space="preserve"
  version="1.1"
  xmlns="http://www.w3.org/2000/svg">

<title>Graphic of net "C:\Users\Tanvi\Desktop\AI2\Data\Model1-with-auto-discretization" generated by an unlicensed user using Netica 6.05 on May 18, 2019 at 09:35:25 UTC.</title>

<polygon points="79.1215,201.489 86.0198,205.541 77,213" fill="#000000" stroke="none"/>
<polyline points="156,78 82,204" stroke="#000000" stroke-width="1" fill="none"/>
<polygon points="91.8352,203.498 96.3419,210.108 85,213" fill="#000000" stroke="none"/>
<polyline points="318,54 94,207" stroke="#000000" stroke-width="1" fill="none"/>
<polygon points="587.307,940.486 590.368,933.095 599,941" fill="#000000" stroke="none"/>
<polyline points="240,792 589,937" stroke="#000000" stroke-width="1" fill="none"/>
<polygon points="646.039,934.564 648.704,942.107 637,942" fill="#000000" stroke="none"/>
<polyline points="1146,762 647,939" stroke="#000000" stroke-width="1" fill="none"/>
<polygon points="1117.37,751.641 1120.96,744.491 1129,753" fill="#000000" stroke="none"/>
<polyline points="72,222 1120,748" stroke="#000000" stroke-width="1" fill="none"/>
<polygon points="1120.52,750.707 1124.68,743.87 1132,753" fill="#000000" stroke="none"/>
<polyline points="486,360 1123,748" stroke="#000000" stroke-width="1" fill="none"/>
<polygon points="1126.32,748.214 1131.89,742.471 1137,753" fill="#000000" stroke="none"/>
<polyline points="732,360 1129,746" stroke="#000000" stroke-width="1" fill="none"/>
<polygon points="1135.15,744.314 1142.57,741.303 1143,753" fill="#000000" stroke="none"/>
<polyline points="984,360 1139,743" stroke="#000000" stroke-width="1" fill="none"/>
<polygon points="1146.72,741.366 1154.49,743.26 1148,753" fill="#000000" stroke="none"/>
<polyline points="1248,342 1150,743" stroke="#000000" stroke-width="1" fill="none"/>
<polygon points="231.033,773.595 238.702,771.316 238,783" fill="#000000" stroke="none"/>
<polyline points="72,222 235,773" stroke="#000000" stroke-width="1" fill="none"/>
<polygon points="246.973,771.463 253.923,775.425 245,783" fill="#000000" stroke="none"/>
<polyline points="486,360 250,774" stroke="#000000" stroke-width="1" fill="none"/>
<polygon points="255.632,772.739 260.907,778.754 250,783" fill="#000000" stroke="none"/>
<polyline points="732,360 258,776" stroke="#000000" stroke-width="1" fill="none"/>
<polygon points="262.51,774.022 266.522,780.943 255,783" fill="#000000" stroke="none"/>
<polyline points="984,360 264,778" stroke="#000000" stroke-width="1" fill="none"/>
<polygon points="268.415,774.864 271.675,782.17 260,783" fill="#000000" stroke="none"/>
<polyline points="1248,342 270,779" stroke="#000000" stroke-width="1" fill="none"/>
<polygon points="491.762,339.429 498.783,343.263 490,351" fill="#000000" stroke="none"/>
<polyline points="648,60 495,342" stroke="#000000" stroke-width="1" fill="none"/>
<polygon points="507.27,341.827 511.464,348.639 500,351" fill="#000000" stroke="none"/>
<polyline points="972,60 509,345" stroke="#000000" stroke-width="1" fill="none"/>
<polygon points="1217.34,331.944 1220.74,324.703 1229,333" fill="#000000" stroke="none"/>
<polyline points="648,60 1219,329" stroke="#000000" stroke-width="1" fill="none"/>
<polygon points="1229.43,327.969 1235.13,322.356 1240,333" fill="#000000" stroke="none"/>
<polyline points="972,60 1233,326" stroke="#000000" stroke-width="1" fill="none"/>
<polygon points="963.13,346.66 968.456,340.691 974,351" fill="#000000" stroke="none"/>
<polyline points="648,60 966,344" stroke="#000000" stroke-width="1" fill="none"/>
<polygon points="979.536,340.18 987.529,339.84 984,351" fill="#000000" stroke="none"/>
<polyline points="972,60 984,341" stroke="#000000" stroke-width="1" fill="none"/>
<polygon points="723.15,341.509 730.846,339.326 730,351" fill="#000000" stroke="none"/>
<polyline points="648,60 727,341" stroke="#000000" stroke-width="1" fill="none"/>
<polygon points="742.758,339.915 749,344.918 739,351" fill="#000000" stroke="none"/>
<polyline points="972,60 746,343" stroke="#000000" stroke-width="1" fill="none"/>
<g id="weathersit">
<rect x="609" y="51" width="79" height="18" rx="9" ry="9" fill="#f8eed2" stroke-width="0"/>
<rect x="609" y="51" width="79" height="18" rx="9" ry="9" fill-opacity="0" stroke="#000000" stroke-width="1"/>
<text x="621" y="65" font-family="Arial" font-size="11.25">weathersit</text>
</g>
<g id="season">
<rect x="940" y="51" width="64" height="18" rx="9" ry="9" fill="#f8eed2" stroke-width="0"/>
<rect x="940" y="51" width="64" height="18" rx="9" ry="9" fill-opacity="0" stroke="#000000" stroke-width="1"/>
<text x="952" y="65" font-family="Arial" font-size="11.25">season</text>
</g>
<g id="workingday">
<rect x="30" y="213" width="84" height="18" rx="9" ry="9" fill="#f8eed2" stroke-width="0"/>
<rect x="30" y="213" width="84" height="18" rx="9" ry="9" fill-opacity="0" stroke="#000000" stroke-width="1"/>
<text x="42" y="227" font-family="Arial" font-size="11.25">workingday</text>
</g>
<g id="weekday">
<rect x="121" y="69" width="70" height="18" rx="9" ry="9" fill="#f8eed2" stroke-width="0"/>
<rect x="121" y="69" width="70" height="18" rx="9" ry="9" fill-opacity="0" stroke="#000000" stroke-width="1"/>
<text x="133" y="83" font-family="Arial" font-size="11.25">weekday</text>
</g>
<g id="holiday">
<rect x="288" y="45" width="61" height="18" rx="9" ry="9" fill="#f8eed2" stroke-width="0"/>
<rect x="288" y="45" width="61" height="18" rx="9" ry="9" fill-opacity="0" stroke="#000000" stroke-width="1"/>
<text x="300" y="59" font-family="Arial" font-size="11.25">holiday</text>
</g>
<g id="cnt">
<rect x="599" y="939" width="38" height="18" rx="9" ry="9" fill="#f8eed2" stroke-width="0"/>
<rect x="599" y="939" width="38" height="18" rx="9" ry="9" fill-opacity="0" stroke="#000000" stroke-width="1"/>
<text x="611" y="953" font-family="Arial" font-size="11.25">cnt</text>
</g>
<g id="registered">
<rect x="1107" y="753" width="78" height="18" rx="9" ry="9" fill="#f8eed2" stroke-width="0"/>
<rect x="1107" y="753" width="78" height="18" rx="9" ry="9" fill-opacity="0" stroke="#000000" stroke-width="1"/>
<text x="1119" y="767" font-family="Arial" font-size="11.25">registered</text>
</g>
<g id="casual">
<rect x="211" y="783" width="59" height="18" rx="9" ry="9" fill="#f8eed2" stroke-width="0"/>
<rect x="211" y="783" width="59" height="18" rx="9" ry="9" fill-opacity="0" stroke="#000000" stroke-width="1"/>
<text x="223" y="797" font-family="Arial" font-size="11.25">casual</text>
</g>
<g id="temp">
<rect x="461" y="351" width="50" height="18" rx="9" ry="9" fill="#f8eed2" stroke-width="0"/>
<rect x="461" y="351" width="50" height="18" rx="9" ry="9" fill-opacity="0" stroke="#000000" stroke-width="1"/>
<text x="473" y="365" font-family="Arial" font-size="11.25">temp</text>
</g>
<g id="hum">
<rect x="1225" y="333" width="47" height="18" rx="9" ry="9" fill="#f8eed2" stroke-width="0"/>
<rect x="1225" y="333" width="47" height="18" rx="9" ry="9" fill-opacity="0" stroke="#000000" stroke-width="1"/>
<text x="1237" y="347" font-family="Arial" font-size="11.25">hum</text>
</g>
<g id="windspeed">
<rect x="943" y="351" width="83" height="18" rx="9" ry="9" fill="#f8eed2" stroke-width="0"/>
<rect x="943" y="351" width="83" height="18" rx="9" ry="9" fill-opacity="0" stroke="#000000" stroke-width="1"/>
<text x="955" y="365" font-family="Arial" font-size="11.25">windspeed</text>
</g>
<g id="atemp">
<rect x="704" y="351" width="57" height="18" rx="9" ry="9" fill="#f8eed2" stroke-width="0"/>
<rect x="704" y="351" width="57" height="18" rx="9" ry="9" fill-opacity="0" stroke="#000000" stroke-width="1"/>
<text x="716" y="365" font-family="Arial" font-size="11.25">atemp</text>
</g>

</svg>

