<?xml version="1.0"?>
<svg width="1351" height="1399" viewBox="0 0 1351 1399"
  xml:space="preserve"
  version="1.1"
  xmlns="http://www.w3.org/2000/svg">

<title>Graphic of net "C:\Users\Tanvi\Desktop\AI2\BikeSharing" generated by an unlicensed user using Netica 6.05 on May 18, 2019 at 09:10:48 UTC.</title>

<polygon points="906.493,145.86 910.555,138.968 918,148" fill="#000000" stroke="none"/>
<polyline points="756,54 909,143" stroke="#000000" stroke-width="1" fill="none"/>
<polygon points="1060.44,160.077 1062.68,167.757 1051,167" fill="#000000" stroke="none"/>
<polyline points="1254,108 1061,164" stroke="#000000" stroke-width="1" fill="none"/>
<polygon points="1145.56,291.504 1149.84,284.742 1157,294" fill="#000000" stroke="none"/>
<polyline points="984,186 1148,288" stroke="#000000" stroke-width="1" fill="none"/>
<polygon points="736.443,290.894 739.678,298.211 728,299" fill="#000000" stroke="none"/>
<polyline points="984,186 738,295" stroke="#000000" stroke-width="1" fill="none"/>
<polygon points="975.114,248.657 983.075,249.453 978,260" fill="#000000" stroke="none"/>
<polyline points="984,186 979,250" stroke="#000000" stroke-width="1" fill="none"/>
<polygon points="927.168,733.747 931.437,740.513 920,743" fill="#000000" stroke="none"/>
<polyline points="1176,582 929,737" stroke="#000000" stroke-width="1" fill="none"/>
<polygon points="773.877,728.357 778.815,722.063 785,732" fill="#000000" stroke="none"/>
<polyline points="336,378 777,726" stroke="#000000" stroke-width="1" fill="none"/>
<polygon points="371.595,792.297 373.66,800.026 362,799" fill="#000000" stroke="none"/>
<polyline points="1176,582 372,796" stroke="#000000" stroke-width="1" fill="none"/>
<polygon points="298.104,726.659 306.065,727.448 301,738" fill="#000000" stroke="none"/>
<polyline points="336,378 302,728" stroke="#000000" stroke-width="1" fill="none"/>
<polygon points="517.431,1145.26 523.995,1140.69 527,1152" fill="#000000" stroke="none"/>
<polyline points="294,816 521,1143" stroke="#000000" stroke-width="1" fill="none"/>
<polygon points="663.788,1116.43 670.801,1120.28 662,1128" fill="#000000" stroke="none"/>
<polyline points="852,784 667,1119" stroke="#000000" stroke-width="1" fill="none"/>
<polygon points="1095.37,547.695 1098.92,540.529 1107,549" fill="#000000" stroke="none"/>
<polyline points="660,328 1098,544" stroke="#000000" stroke-width="1" fill="none"/>
<polygon points="1096.8,499.262 1102.87,494.049 1107,505" fill="#000000" stroke="none"/>
<polyline points="972,352 1100,497" stroke="#000000" stroke-width="1" fill="none"/>
<polygon points="1191.38,478.407 1199.21,480.078 1193,490" fill="#000000" stroke="none"/>
<polyline points="1224,336 1195,480" stroke="#000000" stroke-width="1" fill="none"/>
<polygon points="273.705,338.932 278.314,332.393 285,342" fill="#000000" stroke="none"/>
<polyline points="96,210 276,336" stroke="#000000" stroke-width="1" fill="none"/>
<polygon points="355.599,330.405 362.673,334.14 354,342" fill="#000000" stroke="none"/>
<polyline points="438,180 359,333" stroke="#000000" stroke-width="1" fill="none"/>
<g id="mnth">
<rect x="1188" y="2" width="132" height="212" fill="#f8eed2" stroke-width="0"/>
<text x="1241" y="18" font-family="Arial" font-size="11.25" font-weight="bold">mnth</text>
<line x1="1188" y1="22" x2="1320" y2="22" stroke="#000000" stroke-width="1"/>
<text x="1199" y="36" font-family="Arial" font-size="11.25">1</text>
<text x="1199" y="50" font-family="Arial" font-size="11.25">2</text>
<text x="1199" y="64" font-family="Arial" font-size="11.25">3</text>
<text x="1199" y="78" font-family="Arial" font-size="11.25">4</text>
<text x="1199" y="92" font-family="Arial" font-size="11.25">5</text>
<text x="1199" y="106" font-family="Arial" font-size="11.25">6</text>
<text x="1199" y="120" font-family="Arial" font-size="11.25">7</text>
<text x="1199" y="134" font-family="Arial" font-size="11.25">8</text>
<text x="1199" y="148" font-family="Arial" font-size="11.25">9</text>
<text x="1199" y="162" font-family="Arial" font-size="11.25">10</text>
<text x="1199" y="176" font-family="Arial" font-size="11.25">11</text>
<text x="1199" y="190" font-family="Arial" font-size="11.25">12</text>
<text x="1232" y="36" font-family="Arial" font-size="11.25">8.60</text>
<text x="1232" y="50" font-family="Arial" font-size="11.25">8.40</text>
<text x="1232" y="64" font-family="Arial" font-size="11.25">9.00</text>
<text x="1232" y="78" font-family="Arial" font-size="11.25">8.20</text>
<text x="1232" y="92" font-family="Arial" font-size="11.25">8.00</text>
<text x="1232" y="106" font-family="Arial" font-size="11.25">7.80</text>
<text x="1232" y="120" font-family="Arial" font-size="11.25">9.40</text>
<text x="1232" y="134" font-family="Arial" font-size="11.25">7.60</text>
<text x="1232" y="148" font-family="Arial" font-size="11.25">8.40</text>
<text x="1232" y="162" font-family="Arial" font-size="11.25">7.80</text>
<text x="1232" y="176" font-family="Arial" font-size="11.25">8.60</text>
<text x="1232" y="190" font-family="Arial" font-size="11.25">8.20</text>
<rect x="1259" y="22" width="61" height="172" fill="#c6bea8" stroke-width="0"/>
<rect x="1259" y="28" width="31" height="7" fill="#000000" stroke-width="0"/>
<rect x="1259" y="42" width="31" height="7" fill="#000000" stroke-width="0"/>
<rect x="1259" y="56" width="33" height="7" fill="#000000" stroke-width="0"/>
<rect x="1259" y="70" width="30" height="7" fill="#000000" stroke-width="0"/>
<rect x="1259" y="84" width="29" height="7" fill="#000000" stroke-width="0"/>
<rect x="1259" y="98" width="29" height="7" fill="#000000" stroke-width="0"/>
<rect x="1259" y="112" width="34" height="7" fill="#000000" stroke-width="0"/>
<rect x="1259" y="126" width="28" height="7" fill="#000000" stroke-width="0"/>
<rect x="1259" y="140" width="31" height="7" fill="#000000" stroke-width="0"/>
<rect x="1259" y="154" width="29" height="7" fill="#000000" stroke-width="0"/>
<rect x="1259" y="168" width="31" height="7" fill="#000000" stroke-width="0"/>
<rect x="1259" y="182" width="30" height="7" fill="#000000" stroke-width="0"/>
<rect x="1259" y="22" width="61" height="172" fill-opacity="0" stroke="#000000" stroke-width="1"/>
<line x1="1188" y1="194" x2="1320" y2="194" stroke="#000000" stroke-width="1"/>
<text x="1228" y="209" font-family="Arial" font-size="11.25">6.45 &#177; 3.5</text>
<rect x="1188" y="2" width="132" height="212" fill-opacity="0" stroke="#000000" stroke-width="1"/>
</g>
<g id="season">
<rect x="690" y="4" width="132" height="100" fill="#f8eed2" stroke-width="0"/>
<text x="736" y="20" font-family="Arial" font-size="11.25" font-weight="bold">season</text>
<line x1="690" y1="24" x2="822" y2="24" stroke="#000000" stroke-width="1"/>
<text x="701" y="38" font-family="Arial" font-size="11.25">1</text>
<text x="701" y="52" font-family="Arial" font-size="11.25">2</text>
<text x="701" y="66" font-family="Arial" font-size="11.25">3</text>
<text x="701" y="80" font-family="Arial" font-size="11.25">4</text>
<text x="734" y="38" font-family="Arial" font-size="11.25">25.6</text>
<text x="734" y="52" font-family="Arial" font-size="11.25">24.4</text>
<text x="734" y="66" font-family="Arial" font-size="11.25">26.2</text>
<text x="734" y="80" font-family="Arial" font-size="11.25">23.8</text>
<rect x="761" y="24" width="61" height="60" fill="#c6bea8" stroke-width="0"/>
<line x1="776" y1="25" x2="776" y2="83" stroke="black" stroke-width="1" stroke-dasharray="3,3"/>
<line x1="792" y1="25" x2="792" y2="83" stroke="black" stroke-width="1" stroke-dasharray="3,3"/>
<line x1="807" y1="25" x2="807" y2="83" stroke="black" stroke-width="1" stroke-dasharray="3,3"/>
<rect x="761" y="30" width="16" height="7" fill="#000000" stroke-width="0"/>
<rect x="761" y="44" width="15" height="7" fill="#000000" stroke-width="0"/>
<rect x="761" y="58" width="16" height="7" fill="#000000" stroke-width="0"/>
<rect x="761" y="72" width="15" height="7" fill="#000000" stroke-width="0"/>
<rect x="761" y="24" width="61" height="60" fill-opacity="0" stroke="#000000" stroke-width="1"/>
<line x1="690" y1="84" x2="822" y2="84" stroke="#000000" stroke-width="1"/>
<text x="730" y="99" font-family="Arial" font-size="11.25">2.48 &#177; 1.1</text>
<rect x="690" y="4" width="132" height="100" fill-opacity="0" stroke="#000000" stroke-width="1"/>
</g>
<g id="weathersit">
<rect x="918" y="143" width="132" height="86" fill="#f8eed2" stroke-width="0"/>
<text x="955" y="159" font-family="Arial" font-size="11.25" font-weight="bold">weathersit</text>
<line x1="918" y1="163" x2="1050" y2="163" stroke="#000000" stroke-width="1"/>
<text x="929" y="177" font-family="Arial" font-size="11.25">1</text>
<text x="929" y="191" font-family="Arial" font-size="11.25">2</text>
<text x="929" y="205" font-family="Arial" font-size="11.25">3</text>
<text x="962" y="177" font-family="Arial" font-size="11.25">41.8</text>
<text x="962" y="191" font-family="Arial" font-size="11.25">34.9</text>
<text x="962" y="205" font-family="Arial" font-size="11.25">23.2</text>
<rect x="989" y="163" width="61" height="46" fill="#c6bea8" stroke-width="0"/>
<line x1="1004" y1="164" x2="1004" y2="208" stroke="black" stroke-width="1" stroke-dasharray="3,3"/>
<line x1="1020" y1="164" x2="1020" y2="208" stroke="black" stroke-width="1" stroke-dasharray="3,3"/>
<line x1="1035" y1="164" x2="1035" y2="208" stroke="black" stroke-width="1" stroke-dasharray="3,3"/>
<rect x="989" y="169" width="26" height="7" fill="#000000" stroke-width="0"/>
<rect x="989" y="183" width="21" height="7" fill="#000000" stroke-width="0"/>
<rect x="989" y="197" width="14" height="7" fill="#000000" stroke-width="0"/>
<rect x="989" y="163" width="61" height="46" fill-opacity="0" stroke="#000000" stroke-width="1"/>
<line x1="918" y1="209" x2="1050" y2="209" stroke="#000000" stroke-width="1"/>
<text x="955" y="224" font-family="Arial" font-size="11.25">1.81 &#177; 0.78</text>
<rect x="918" y="143" width="132" height="86" fill-opacity="0" stroke="#000000" stroke-width="1"/>
</g>
<g id="windspeed">
<rect x="1157" y="272" width="134" height="128" fill="#f8eed2" stroke-width="0"/>
<text x="1194" y="288" font-family="Arial" font-size="11.25" font-weight="bold">windspeed</text>
<line x1="1157" y1="292" x2="1291" y2="292" stroke="#000000" stroke-width="1"/>
<text x="1168" y="306" font-family="Arial" font-size="11.25">0</text>
<text x="1168" y="320" font-family="Arial" font-size="11.25">0.1</text>
<text x="1168" y="334" font-family="Arial" font-size="11.25">0.2</text>
<text x="1168" y="348" font-family="Arial" font-size="11.25">0.3</text>
<text x="1168" y="362" font-family="Arial" font-size="11.25">0.4</text>
<text x="1168" y="376" font-family="Arial" font-size="11.25">0.5</text>
<text x="1203" y="306" font-family="Arial" font-size="11.25">0.74</text>
<text x="1203" y="320" font-family="Arial" font-size="11.25">28.8</text>
<text x="1203" y="334" font-family="Arial" font-size="11.25">46.3</text>
<text x="1203" y="348" font-family="Arial" font-size="11.25">18.5</text>
<text x="1203" y="362" font-family="Arial" font-size="11.25">5.59</text>
<text x="1203" y="376" font-family="Arial" font-size="11.25">0.13</text>
<rect x="1230" y="292" width="61" height="88" fill="#c6bea8" stroke-width="0"/>
<line x1="1256" y1="293" x2="1256" y2="379" stroke="black" stroke-width="1" stroke-dasharray="3,3"/>
<line x1="1283" y1="293" x2="1283" y2="379" stroke="black" stroke-width="1" stroke-dasharray="3,3"/>
<rect x="1230" y="298" width="1" height="7" fill="#000000" stroke-width="0"/>
<rect x="1230" y="312" width="30" height="7" fill="#000000" stroke-width="0"/>
<rect x="1230" y="326" width="49" height="7" fill="#000000" stroke-width="0"/>
<rect x="1230" y="340" width="20" height="7" fill="#000000" stroke-width="0"/>
<rect x="1230" y="354" width="6" height="7" fill="#000000" stroke-width="0"/>
<rect x="1230" y="292" width="61" height="88" fill-opacity="0" stroke="#000000" stroke-width="1"/>
<line x1="1157" y1="380" x2="1291" y2="380" stroke="#000000" stroke-width="1"/>
<text x="1195" y="395" font-family="Arial" font-size="11.25">0.2 &#177; 0.086</text>
<rect x="1157" y="272" width="134" height="128" fill-opacity="0" stroke="#000000" stroke-width="1"/>
</g>
<g id="holiday">
<rect x="372" y="144" width="132" height="72" fill="#f8eed2" stroke-width="0"/>
<text x="419" y="160" font-family="Arial" font-size="11.25" font-weight="bold">holiday</text>
<line x1="372" y1="164" x2="504" y2="164" stroke="#000000" stroke-width="1"/>
<text x="383" y="178" font-family="Arial" font-size="11.25">0</text>
<text x="383" y="192" font-family="Arial" font-size="11.25">1</text>
<text x="416" y="178" font-family="Arial" font-size="11.25">96.6</text>
<text x="416" y="192" font-family="Arial" font-size="11.25">3.40</text>
<rect x="443" y="164" width="61" height="32" fill="#c6bea8" stroke-width="0"/>
<line x1="458" y1="165" x2="458" y2="195" stroke="black" stroke-width="1" stroke-dasharray="3,3"/>
<line x1="474" y1="165" x2="474" y2="195" stroke="black" stroke-width="1" stroke-dasharray="3,3"/>
<line x1="489" y1="165" x2="489" y2="195" stroke="black" stroke-width="1" stroke-dasharray="3,3"/>
<rect x="443" y="170" width="59" height="7" fill="#000000" stroke-width="0"/>
<rect x="443" y="184" width="2" height="7" fill="#000000" stroke-width="0"/>
<rect x="443" y="164" width="61" height="32" fill-opacity="0" stroke="#000000" stroke-width="1"/>
<line x1="372" y1="196" x2="504" y2="196" stroke="#000000" stroke-width="1"/>
<text x="405" y="211" font-family="Arial" font-size="11.25">0.034 &#177; 0.18</text>
<rect x="372" y="144" width="132" height="72" fill-opacity="0" stroke="#000000" stroke-width="1"/>
</g>
<g id="weekday">
<rect x="30" y="139" width="132" height="142" fill="#f8eed2" stroke-width="0"/>
<text x="72" y="155" font-family="Arial" font-size="11.25" font-weight="bold">weekday</text>
<line x1="30" y1="159" x2="162" y2="159" stroke="#000000" stroke-width="1"/>
<text x="41" y="173" font-family="Arial" font-size="11.25">0</text>
<text x="41" y="187" font-family="Arial" font-size="11.25">1</text>
<text x="41" y="201" font-family="Arial" font-size="11.25">2</text>
<text x="41" y="215" font-family="Arial" font-size="11.25">3</text>
<text x="41" y="229" font-family="Arial" font-size="11.25">4</text>
<text x="41" y="243" font-family="Arial" font-size="11.25">5</text>
<text x="41" y="257" font-family="Arial" font-size="11.25">6</text>
<text x="74" y="173" font-family="Arial" font-size="11.25">12.2</text>
<text x="74" y="187" font-family="Arial" font-size="11.25">14.2</text>
<text x="74" y="201" font-family="Arial" font-size="11.25">15.8</text>
<text x="74" y="215" font-family="Arial" font-size="11.25">14.2</text>
<text x="74" y="229" font-family="Arial" font-size="11.25">15.0</text>
<text x="74" y="243" font-family="Arial" font-size="11.25">13.0</text>
<text x="74" y="257" font-family="Arial" font-size="11.25">15.6</text>
<rect x="101" y="159" width="61" height="102" fill="#c6bea8" stroke-width="0"/>
<line x1="147" y1="160" x2="147" y2="260" stroke="black" stroke-width="1" stroke-dasharray="3,3"/>
<rect x="101" y="165" width="22" height="7" fill="#000000" stroke-width="0"/>
<rect x="101" y="179" width="26" height="7" fill="#000000" stroke-width="0"/>
<rect x="101" y="193" width="29" height="7" fill="#000000" stroke-width="0"/>
<rect x="101" y="207" width="26" height="7" fill="#000000" stroke-width="0"/>
<rect x="101" y="221" width="27" height="7" fill="#000000" stroke-width="0"/>
<rect x="101" y="235" width="24" height="7" fill="#000000" stroke-width="0"/>
<rect x="101" y="249" width="29" height="7" fill="#000000" stroke-width="0"/>
<rect x="101" y="159" width="61" height="102" fill-opacity="0" stroke="#000000" stroke-width="1"/>
<line x1="30" y1="261" x2="162" y2="261" stroke="#000000" stroke-width="1"/>
<text x="75" y="276" font-family="Arial" font-size="11.25">3.07 &#177; 2</text>
<rect x="30" y="139" width="132" height="142" fill-opacity="0" stroke="#000000" stroke-width="1"/>
</g>
<g id="atemp">
<rect x="593" y="250" width="134" height="156" fill="#f8eed2" stroke-width="0"/>
<text x="643" y="266" font-family="Arial" font-size="11.25" font-weight="bold">atemp</text>
<line x1="593" y1="270" x2="727" y2="270" stroke="#000000" stroke-width="1"/>
<text x="604" y="284" font-family="Arial" font-size="11.25">0.1</text>
<text x="604" y="298" font-family="Arial" font-size="11.25">0.2</text>
<text x="604" y="312" font-family="Arial" font-size="11.25">0.3</text>
<text x="604" y="326" font-family="Arial" font-size="11.25">0.4</text>
<text x="604" y="340" font-family="Arial" font-size="11.25">0.5</text>
<text x="604" y="354" font-family="Arial" font-size="11.25">0.6</text>
<text x="604" y="368" font-family="Arial" font-size="11.25">0.7</text>
<text x="604" y="382" font-family="Arial" font-size="11.25">0.8</text>
<text x="639" y="284" font-family="Arial" font-size="11.25">0.81</text>
<text x="639" y="298" font-family="Arial" font-size="11.25">10.6</text>
<text x="639" y="312" font-family="Arial" font-size="11.25">16.4</text>
<text x="639" y="326" font-family="Arial" font-size="11.25">19.3</text>
<text x="639" y="340" font-family="Arial" font-size="11.25">22.7</text>
<text x="639" y="354" font-family="Arial" font-size="11.25">16.9</text>
<text x="639" y="368" font-family="Arial" font-size="11.25">11.7</text>
<text x="639" y="382" font-family="Arial" font-size="11.25">1.61</text>
<rect x="666" y="270" width="61" height="116" fill="#c6bea8" stroke-width="0"/>
<line x1="720" y1="271" x2="720" y2="385" stroke="black" stroke-width="1" stroke-dasharray="3,3"/>
<rect x="666" y="276" width="2" height="7" fill="#000000" stroke-width="0"/>
<rect x="666" y="290" width="23" height="7" fill="#000000" stroke-width="0"/>
<rect x="666" y="304" width="35" height="7" fill="#000000" stroke-width="0"/>
<rect x="666" y="318" width="41" height="7" fill="#000000" stroke-width="0"/>
<rect x="666" y="332" width="49" height="7" fill="#000000" stroke-width="0"/>
<rect x="666" y="346" width="36" height="7" fill="#000000" stroke-width="0"/>
<rect x="666" y="360" width="25" height="7" fill="#000000" stroke-width="0"/>
<rect x="666" y="374" width="3" height="7" fill="#000000" stroke-width="0"/>
<rect x="666" y="270" width="61" height="116" fill-opacity="0" stroke="#000000" stroke-width="1"/>
<line x1="593" y1="386" x2="727" y2="386" stroke="#000000" stroke-width="1"/>
<text x="627" y="401" font-family="Arial" font-size="11.25">0.458 &#177; 0.16</text>
<rect x="593" y="250" width="134" height="156" fill-opacity="0" stroke="#000000" stroke-width="1"/>
</g>
<g id="hum">
<rect x="905" y="260" width="134" height="184" fill="#f8eed2" stroke-width="0"/>
<text x="961" y="276" font-family="Arial" font-size="11.25" font-weight="bold">hum</text>
<line x1="905" y1="280" x2="1039" y2="280" stroke="#000000" stroke-width="1"/>
<text x="916" y="294" font-family="Arial" font-size="11.25">0</text>
<text x="916" y="308" font-family="Arial" font-size="11.25">0.2</text>
<text x="916" y="322" font-family="Arial" font-size="11.25">0.3</text>
<text x="916" y="336" font-family="Arial" font-size="11.25">0.4</text>
<text x="916" y="350" font-family="Arial" font-size="11.25">0.5</text>
<text x="916" y="364" font-family="Arial" font-size="11.25">0.6</text>
<text x="916" y="378" font-family="Arial" font-size="11.25">0.7</text>
<text x="916" y="392" font-family="Arial" font-size="11.25">0.8</text>
<text x="916" y="406" font-family="Arial" font-size="11.25">0.9</text>
<text x="916" y="420" font-family="Arial" font-size="11.25">1</text>
<text x="951" y="294" font-family="Arial" font-size="11.25">1.45</text>
<text x="951" y="308" font-family="Arial" font-size="11.25">0.13</text>
<text x="951" y="322" font-family="Arial" font-size="11.25">0.94</text>
<text x="951" y="336" font-family="Arial" font-size="11.25">5.45</text>
<text x="951" y="350" font-family="Arial" font-size="11.25">15.0</text>
<text x="951" y="364" font-family="Arial" font-size="11.25">19.4</text>
<text x="951" y="378" font-family="Arial" font-size="11.25">20.6</text>
<text x="951" y="392" font-family="Arial" font-size="11.25">13.6</text>
<text x="951" y="406" font-family="Arial" font-size="11.25">20.4</text>
<text x="951" y="420" font-family="Arial" font-size="11.25">2.90</text>
<rect x="978" y="280" width="61" height="144" fill="#c6bea8" stroke-width="0"/>
<line x1="1037" y1="281" x2="1037" y2="423" stroke="black" stroke-width="1" stroke-dasharray="3,3"/>
<rect x="978" y="286" width="3" height="7" fill="#000000" stroke-width="0"/>
<rect x="978" y="314" width="2" height="7" fill="#000000" stroke-width="0"/>
<rect x="978" y="328" width="13" height="7" fill="#000000" stroke-width="0"/>
<rect x="978" y="342" width="35" height="7" fill="#000000" stroke-width="0"/>
<rect x="978" y="356" width="46" height="7" fill="#000000" stroke-width="0"/>
<rect x="978" y="370" width="49" height="7" fill="#000000" stroke-width="0"/>
<rect x="978" y="384" width="32" height="7" fill="#000000" stroke-width="0"/>
<rect x="978" y="398" width="48" height="7" fill="#000000" stroke-width="0"/>
<rect x="978" y="412" width="7" height="7" fill="#000000" stroke-width="0"/>
<rect x="978" y="280" width="61" height="144" fill-opacity="0" stroke="#000000" stroke-width="1"/>
<line x1="905" y1="424" x2="1039" y2="424" stroke="#000000" stroke-width="1"/>
<text x="939" y="439" font-family="Arial" font-size="11.25">0.683 &#177; 0.18</text>
<rect x="905" y="260" width="134" height="184" fill-opacity="0" stroke="#000000" stroke-width="1"/>
</g>
<g id="registered">
<rect x="785" y="657" width="134" height="254" fill="#f8eed2" stroke-width="0"/>
<text x="824" y="673" font-family="Arial" font-size="11.25" font-weight="bold">registered</text>
<line x1="785" y1="677" x2="919" y2="677" stroke="#000000" stroke-width="1"/>
<text x="796" y="691" font-family="Arial" font-size="11.25">0</text>
<text x="796" y="705" font-family="Arial" font-size="11.25">0.1</text>
<text x="796" y="719" font-family="Arial" font-size="11.25">0.2</text>
<text x="796" y="733" font-family="Arial" font-size="11.25">0.3</text>
<text x="796" y="747" font-family="Arial" font-size="11.25">0.4</text>
<text x="796" y="761" font-family="Arial" font-size="11.25">0.5</text>
<text x="796" y="775" font-family="Arial" font-size="11.25">0.6</text>
<text x="796" y="789" font-family="Arial" font-size="11.25">0.7</text>
<text x="796" y="803" font-family="Arial" font-size="11.25">0.8</text>
<text x="796" y="817" font-family="Arial" font-size="11.25">0.9</text>
<text x="796" y="831" font-family="Arial" font-size="11.25">1</text>
<text x="796" y="845" font-family="Arial" font-size="11.25">1.1</text>
<text x="796" y="859" font-family="Arial" font-size="11.25">1.2</text>
<text x="796" y="873" font-family="Arial" font-size="11.25">1.3</text>
<text x="796" y="887" font-family="Arial" font-size="11.25">1.4</text>
<text x="831" y="691" font-family="Arial" font-size="11.25">0.36</text>
<text x="831" y="705" font-family="Arial" font-size="11.25">3.48</text>
<text x="831" y="719" font-family="Arial" font-size="11.25">4.72</text>
<text x="831" y="733" font-family="Arial" font-size="11.25">7.70</text>
<text x="831" y="747" font-family="Arial" font-size="11.25">7.04</text>
<text x="831" y="761" font-family="Arial" font-size="11.25">10.3</text>
<text x="831" y="775" font-family="Arial" font-size="11.25">11.0</text>
<text x="831" y="789" font-family="Arial" font-size="11.25">13.7</text>
<text x="831" y="803" font-family="Arial" font-size="11.25">12.5</text>
<text x="831" y="817" font-family="Arial" font-size="11.25">6.78</text>
<text x="831" y="831" font-family="Arial" font-size="11.25">7.81</text>
<text x="831" y="845" font-family="Arial" font-size="11.25">4.75</text>
<text x="831" y="859" font-family="Arial" font-size="11.25">4.80</text>
<text x="831" y="873" font-family="Arial" font-size="11.25">3.90</text>
<text x="831" y="887" font-family="Arial" font-size="11.25">1.22</text>
<rect x="858" y="677" width="61" height="214" fill="#c6bea8" stroke-width="0"/>
<rect x="858" y="683" width="1" height="7" fill="#000000" stroke-width="0"/>
<rect x="858" y="697" width="12" height="7" fill="#000000" stroke-width="0"/>
<rect x="858" y="711" width="17" height="7" fill="#000000" stroke-width="0"/>
<rect x="858" y="725" width="27" height="7" fill="#000000" stroke-width="0"/>
<rect x="858" y="739" width="25" height="7" fill="#000000" stroke-width="0"/>
<rect x="858" y="753" width="37" height="7" fill="#000000" stroke-width="0"/>
<rect x="858" y="767" width="39" height="7" fill="#000000" stroke-width="0"/>
<rect x="858" y="781" width="49" height="7" fill="#000000" stroke-width="0"/>
<rect x="858" y="795" width="44" height="7" fill="#000000" stroke-width="0"/>
<rect x="858" y="809" width="24" height="7" fill="#000000" stroke-width="0"/>
<rect x="858" y="823" width="28" height="7" fill="#000000" stroke-width="0"/>
<rect x="858" y="837" width="17" height="7" fill="#000000" stroke-width="0"/>
<rect x="858" y="851" width="17" height="7" fill="#000000" stroke-width="0"/>
<rect x="858" y="865" width="14" height="7" fill="#000000" stroke-width="0"/>
<rect x="858" y="879" width="4" height="7" fill="#000000" stroke-width="0"/>
<rect x="858" y="677" width="61" height="214" fill-opacity="0" stroke="#000000" stroke-width="1"/>
<line x1="785" y1="891" x2="919" y2="891" stroke="#000000" stroke-width="1"/>
<text x="819" y="906" font-family="Arial" font-size="11.25">0.694 &#177; 0.32</text>
<rect x="785" y="657" width="134" height="254" fill-opacity="0" stroke="#000000" stroke-width="1"/>
</g>
<g id="casual">
<rect x="227" y="738" width="134" height="156" fill="#f8eed2" stroke-width="0"/>
<text x="276" y="754" font-family="Arial" font-size="11.25" font-weight="bold">casual</text>
<line x1="227" y1="758" x2="361" y2="758" stroke="#000000" stroke-width="1"/>
<text x="238" y="772" font-family="Arial" font-size="11.25">0</text>
<text x="238" y="786" font-family="Arial" font-size="11.25">0.1</text>
<text x="238" y="800" font-family="Arial" font-size="11.25">0.2</text>
<text x="238" y="814" font-family="Arial" font-size="11.25">0.3</text>
<text x="238" y="828" font-family="Arial" font-size="11.25">0.4</text>
<text x="238" y="842" font-family="Arial" font-size="11.25">0.5</text>
<text x="238" y="856" font-family="Arial" font-size="11.25">0.6</text>
<text x="238" y="870" font-family="Arial" font-size="11.25">0.7</text>
<text x="273" y="772" font-family="Arial" font-size="11.25">28.9</text>
<text x="273" y="786" font-family="Arial" font-size="11.25">28.5</text>
<text x="273" y="800" font-family="Arial" font-size="11.25">24.8</text>
<text x="273" y="814" font-family="Arial" font-size="11.25">8.41</text>
<text x="273" y="828" font-family="Arial" font-size="11.25">3.75</text>
<text x="273" y="842" font-family="Arial" font-size="11.25">3.76</text>
<text x="273" y="856" font-family="Arial" font-size="11.25">1.30</text>
<text x="273" y="870" font-family="Arial" font-size="11.25">0.58</text>
<rect x="300" y="758" width="61" height="116" fill="#c6bea8" stroke-width="0"/>
<line x1="342" y1="759" x2="342" y2="873" stroke="black" stroke-width="1" stroke-dasharray="3,3"/>
<rect x="300" y="764" width="49" height="7" fill="#000000" stroke-width="0"/>
<rect x="300" y="778" width="48" height="7" fill="#000000" stroke-width="0"/>
<rect x="300" y="792" width="42" height="7" fill="#000000" stroke-width="0"/>
<rect x="300" y="806" width="14" height="7" fill="#000000" stroke-width="0"/>
<rect x="300" y="820" width="6" height="7" fill="#000000" stroke-width="0"/>
<rect x="300" y="834" width="6" height="7" fill="#000000" stroke-width="0"/>
<rect x="300" y="848" width="2" height="7" fill="#000000" stroke-width="0"/>
<rect x="300" y="862" width="1" height="7" fill="#000000" stroke-width="0"/>
<rect x="300" y="758" width="61" height="116" fill-opacity="0" stroke="#000000" stroke-width="1"/>
<line x1="227" y1="874" x2="361" y2="874" stroke="#000000" stroke-width="1"/>
<text x="261" y="889" font-family="Arial" font-size="11.25">0.149 &#177; 0.15</text>
<rect x="227" y="738" width="134" height="156" fill-opacity="0" stroke="#000000" stroke-width="1"/>
</g>
<g id="cnt">
<rect x="527" y="1100" width="134" height="296" fill="#f8eed2" stroke-width="0"/>
<text x="586" y="1116" font-family="Arial" font-size="11.25" font-weight="bold">cnt</text>
<line x1="527" y1="1120" x2="661" y2="1120" stroke="#000000" stroke-width="1"/>
<text x="538" y="1134" font-family="Arial" font-size="11.25">0</text>
<text x="538" y="1148" font-family="Arial" font-size="11.25">0.1</text>
<text x="538" y="1162" font-family="Arial" font-size="11.25">0.2</text>
<text x="538" y="1176" font-family="Arial" font-size="11.25">0.3</text>
<text x="538" y="1190" font-family="Arial" font-size="11.25">0.4</text>
<text x="538" y="1204" font-family="Arial" font-size="11.25">0.5</text>
<text x="538" y="1218" font-family="Arial" font-size="11.25">0.6</text>
<text x="538" y="1232" font-family="Arial" font-size="11.25">0.7</text>
<text x="538" y="1246" font-family="Arial" font-size="11.25">0.8</text>
<text x="538" y="1260" font-family="Arial" font-size="11.25">0.9</text>
<text x="538" y="1274" font-family="Arial" font-size="11.25">1</text>
<text x="538" y="1288" font-family="Arial" font-size="11.25">1.1</text>
<text x="538" y="1302" font-family="Arial" font-size="11.25">1.2</text>
<text x="538" y="1316" font-family="Arial" font-size="11.25">1.3</text>
<text x="538" y="1330" font-family="Arial" font-size="11.25">1.4</text>
<text x="538" y="1344" font-family="Arial" font-size="11.25">1.5</text>
<text x="538" y="1358" font-family="Arial" font-size="11.25">1.6</text>
<text x="538" y="1372" font-family="Arial" font-size="11.25">1.7</text>
<text x="573" y="1134" font-family="Arial" font-size="11.25">0.40</text>
<text x="573" y="1148" font-family="Arial" font-size="11.25">2.46</text>
<text x="573" y="1162" font-family="Arial" font-size="11.25">4.37</text>
<text x="573" y="1176" font-family="Arial" font-size="11.25">5.20</text>
<text x="573" y="1190" font-family="Arial" font-size="11.25">7.24</text>
<text x="573" y="1204" font-family="Arial" font-size="11.25">6.84</text>
<text x="573" y="1218" font-family="Arial" font-size="11.25">6.06</text>
<text x="573" y="1232" font-family="Arial" font-size="11.25">6.99</text>
<text x="573" y="1246" font-family="Arial" font-size="11.25">10.6</text>
<text x="573" y="1260" font-family="Arial" font-size="11.25">11.5</text>
<text x="573" y="1274" font-family="Arial" font-size="11.25">8.21</text>
<text x="573" y="1288" font-family="Arial" font-size="11.25">7.26</text>
<text x="573" y="1302" font-family="Arial" font-size="11.25">4.46</text>
<text x="573" y="1316" font-family="Arial" font-size="11.25">4.39</text>
<text x="573" y="1330" font-family="Arial" font-size="11.25">4.88</text>
<text x="573" y="1344" font-family="Arial" font-size="11.25">6.86</text>
<text x="573" y="1358" font-family="Arial" font-size="11.25">1.78</text>
<text x="573" y="1372" font-family="Arial" font-size="11.25">0.47</text>
<rect x="600" y="1120" width="61" height="256" fill="#c6bea8" stroke-width="0"/>
<rect x="600" y="1126" width="2" height="7" fill="#000000" stroke-width="0"/>
<rect x="600" y="1140" width="10" height="7" fill="#000000" stroke-width="0"/>
<rect x="600" y="1154" width="18" height="7" fill="#000000" stroke-width="0"/>
<rect x="600" y="1168" width="22" height="7" fill="#000000" stroke-width="0"/>
<rect x="600" y="1182" width="31" height="7" fill="#000000" stroke-width="0"/>
<rect x="600" y="1196" width="29" height="7" fill="#000000" stroke-width="0"/>
<rect x="600" y="1210" width="26" height="7" fill="#000000" stroke-width="0"/>
<rect x="600" y="1224" width="30" height="7" fill="#000000" stroke-width="0"/>
<rect x="600" y="1238" width="45" height="7" fill="#000000" stroke-width="0"/>
<rect x="600" y="1252" width="49" height="7" fill="#000000" stroke-width="0"/>
<rect x="600" y="1266" width="35" height="7" fill="#000000" stroke-width="0"/>
<rect x="600" y="1280" width="31" height="7" fill="#000000" stroke-width="0"/>
<rect x="600" y="1294" width="19" height="7" fill="#000000" stroke-width="0"/>
<rect x="600" y="1308" width="19" height="7" fill="#000000" stroke-width="0"/>
<rect x="600" y="1322" width="21" height="7" fill="#000000" stroke-width="0"/>
<rect x="600" y="1336" width="29" height="7" fill="#000000" stroke-width="0"/>
<rect x="600" y="1350" width="8" height="7" fill="#000000" stroke-width="0"/>
<rect x="600" y="1364" width="2" height="7" fill="#000000" stroke-width="0"/>
<rect x="600" y="1120" width="61" height="256" fill-opacity="0" stroke="#000000" stroke-width="1"/>
<line x1="527" y1="1376" x2="661" y2="1376" stroke="#000000" stroke-width="1"/>
<text x="565" y="1391" font-family="Arial" font-size="11.25">0.844 &#177; 0.4</text>
<rect x="527" y="1100" width="134" height="296" fill-opacity="0" stroke="#000000" stroke-width="1"/>
</g>
<g id="weatherconditions">
<rect x="1107" y="490" width="138" height="184" fill="#f8eed2" stroke-width="0"/>
<text x="1124" y="506" font-family="Arial" font-size="11.25" font-weight="bold">weatherconditions</text>
<line x1="1107" y1="510" x2="1245" y2="510" stroke="#000000" stroke-width="1"/>
<text x="1118" y="524" font-family="Arial" font-size="11.25">s1</text>
<text x="1118" y="538" font-family="Arial" font-size="11.25">s2</text>
<text x="1118" y="552" font-family="Arial" font-size="11.25">s3</text>
<text x="1118" y="566" font-family="Arial" font-size="11.25">s4</text>
<text x="1118" y="580" font-family="Arial" font-size="11.25">s5</text>
<text x="1118" y="594" font-family="Arial" font-size="11.25">s6</text>
<text x="1118" y="608" font-family="Arial" font-size="11.25">s7</text>
<text x="1118" y="622" font-family="Arial" font-size="11.25">s8</text>
<text x="1118" y="636" font-family="Arial" font-size="11.25">s9</text>
<text x="1118" y="650" font-family="Arial" font-size="11.25">s10</text>
<text x="1157" y="524" font-family="Arial" font-size="11.25">12.3</text>
<text x="1157" y="538" font-family="Arial" font-size="11.25">12.7</text>
<text x="1157" y="552" font-family="Arial" font-size="11.25">4.40</text>
<text x="1157" y="566" font-family="Arial" font-size="11.25">9.57</text>
<text x="1157" y="580" font-family="Arial" font-size="11.25">10.3</text>
<text x="1157" y="594" font-family="Arial" font-size="11.25">9.86</text>
<text x="1157" y="608" font-family="Arial" font-size="11.25">11.3</text>
<text x="1157" y="622" font-family="Arial" font-size="11.25">8.11</text>
<text x="1157" y="636" font-family="Arial" font-size="11.25">12.6</text>
<text x="1157" y="650" font-family="Arial" font-size="11.25">8.90</text>
<rect x="1184" y="510" width="61" height="144" fill="#c6bea8" stroke-width="0"/>
<rect x="1184" y="516" width="38" height="7" fill="#000000" stroke-width="0"/>
<rect x="1184" y="530" width="39" height="7" fill="#000000" stroke-width="0"/>
<rect x="1184" y="544" width="13" height="7" fill="#000000" stroke-width="0"/>
<rect x="1184" y="558" width="29" height="7" fill="#000000" stroke-width="0"/>
<rect x="1184" y="572" width="31" height="7" fill="#000000" stroke-width="0"/>
<rect x="1184" y="586" width="30" height="7" fill="#000000" stroke-width="0"/>
<rect x="1184" y="600" width="34" height="7" fill="#000000" stroke-width="0"/>
<rect x="1184" y="614" width="25" height="7" fill="#000000" stroke-width="0"/>
<rect x="1184" y="628" width="38" height="7" fill="#000000" stroke-width="0"/>
<rect x="1184" y="642" width="27" height="7" fill="#000000" stroke-width="0"/>
<rect x="1184" y="510" width="61" height="144" fill-opacity="0" stroke="#000000" stroke-width="1"/>
<line x1="1107" y1="654" x2="1245" y2="654" stroke="#000000" stroke-width="1"/>
<text x="1150" y="669" font-family="Arial" font-size="11.25">5.46 &#177; 2.9</text>
<rect x="1107" y="490" width="138" height="184" fill-opacity="0" stroke="#000000" stroke-width="1"/>
</g>
<g id="workingday">
<rect x="270" y="342" width="132" height="72" fill="#f8eed2" stroke-width="0"/>
<text x="304" y="358" font-family="Arial" font-size="11.25" font-weight="bold">workingday</text>
<line x1="270" y1="362" x2="402" y2="362" stroke="#000000" stroke-width="1"/>
<text x="281" y="376" font-family="Arial" font-size="11.25">0</text>
<text x="281" y="390" font-family="Arial" font-size="11.25">1</text>
<text x="314" y="376" font-family="Arial" font-size="11.25">29.6</text>
<text x="314" y="390" font-family="Arial" font-size="11.25">70.4</text>
<rect x="341" y="362" width="61" height="32" fill="#c6bea8" stroke-width="0"/>
<line x1="356" y1="363" x2="356" y2="393" stroke="black" stroke-width="1" stroke-dasharray="3,3"/>
<line x1="372" y1="363" x2="372" y2="393" stroke="black" stroke-width="1" stroke-dasharray="3,3"/>
<line x1="387" y1="363" x2="387" y2="393" stroke="black" stroke-width="1" stroke-dasharray="3,3"/>
<rect x="341" y="368" width="18" height="7" fill="#000000" stroke-width="0"/>
<rect x="341" y="382" width="43" height="7" fill="#000000" stroke-width="0"/>
<rect x="341" y="362" width="61" height="32" fill-opacity="0" stroke="#000000" stroke-width="1"/>
<line x1="270" y1="394" x2="402" y2="394" stroke="#000000" stroke-width="1"/>
<text x="303" y="409" font-family="Arial" font-size="11.25">0.704 &#177; 0.46</text>
<rect x="270" y="342" width="132" height="72" fill-opacity="0" stroke="#000000" stroke-width="1"/>
</g>

</svg>

