<?xml version="1.0"?>
<svg width="1298" height="1381" viewBox="0 0 1298 1381"
  xml:space="preserve"
  version="1.1"
  xmlns="http://www.w3.org/2000/svg">

<title>Graphic of net "C:\Users\Tanvi\Desktop\AI2\BikeSharing-approx" generated by an unlicensed user using Netica 6.05 on May 18, 2019 at 09:20:39 UTC.</title>

<polygon points="264.982,600.337 272.245,603.692 264,612" fill="#000000" stroke="none"/>
<polyline points="366,390 268,602" stroke="#000000" stroke-width="1" fill="none"/>
<polygon points="223.849,601.056 231.849,600.946 228,612" fill="#000000" stroke="none"/>
<polyline points="222,138 228,602" stroke="#000000" stroke-width="1" fill="none"/>
<polygon points="305.328,662.93 307.691,670.573 296,670" fill="#000000" stroke="none"/>
<polyline points="912,480 306,667" stroke="#000000" stroke-width="1" fill="none"/>
<polygon points="588.467,1064.9 594.206,1059.32 599,1070" fill="#000000" stroke="none"/>
<polyline points="228,690 592,1062" stroke="#000000" stroke-width="1" fill="none"/>
<polygon points="741.468,1089.99 745.513,1096.89 734,1099" fill="#000000" stroke="none"/>
<polyline points="1074,900 743,1094" stroke="#000000" stroke-width="1" fill="none"/>
<polygon points="840.705,433.93 845.315,427.392 852,437" fill="#000000" stroke="none"/>
<polyline points="558,228 843,431" stroke="#000000" stroke-width="1" fill="none"/>
<polygon points="884.799,428.649 892.078,425.332 893,437" fill="#000000" stroke="none"/>
<polyline points="780,186 889,427" stroke="#000000" stroke-width="1" fill="none"/>
<polygon points="928.324,425.3 935.764,428.241 928,437" fill="#000000" stroke="none"/>
<polyline points="1026,186 932,427" stroke="#000000" stroke-width="1" fill="none"/>
<polygon points="995.742,848.797 1000.43,842.314 1007,852" fill="#000000" stroke="none"/>
<polyline points="366,390 998,846" stroke="#000000" stroke-width="1" fill="none"/>
<polygon points="996.133,836.651 1001.47,830.687 1007,841" fill="#000000" stroke="none"/>
<polyline points="222,138 999,834" stroke="#000000" stroke-width="1" fill="none"/>
<polygon points="1017.28,764.202 1024.73,761.298 1025,773" fill="#000000" stroke="none"/>
<polyline points="912,480 1021,763" stroke="#000000" stroke-width="1" fill="none"/>
<g id="workingday">
<rect x="156" y="102" width="132" height="72" fill="#f8eed2" stroke-width="0"/>
<text x="190" y="118" font-family="Arial" font-size="11.25" font-weight="bold">workingday</text>
<line x1="156" y1="122" x2="288" y2="122" stroke="#000000" stroke-width="1"/>
<text x="167" y="136" font-family="Arial" font-size="11.25">0</text>
<text x="167" y="150" font-family="Arial" font-size="11.25">1</text>
<text x="200" y="136" font-family="Arial" font-size="11.25">31.2</text>
<text x="200" y="150" font-family="Arial" font-size="11.25">68.8</text>
<rect x="227" y="122" width="61" height="32" fill="#c6bea8" stroke-width="0"/>
<line x1="242" y1="123" x2="242" y2="153" stroke="black" stroke-width="1" stroke-dasharray="3,3"/>
<line x1="258" y1="123" x2="258" y2="153" stroke="black" stroke-width="1" stroke-dasharray="3,3"/>
<line x1="273" y1="123" x2="273" y2="153" stroke="black" stroke-width="1" stroke-dasharray="3,3"/>
<rect x="227" y="128" width="19" height="7" fill="#000000" stroke-width="0"/>
<rect x="227" y="142" width="42" height="7" fill="#000000" stroke-width="0"/>
<rect x="227" y="122" width="61" height="32" fill-opacity="0" stroke="#000000" stroke-width="1"/>
<line x1="156" y1="154" x2="288" y2="154" stroke="#000000" stroke-width="1"/>
<text x="189" y="169" font-family="Arial" font-size="11.25">0.688 &#177; 0.46</text>
<rect x="156" y="102" width="132" height="72" fill-opacity="0" stroke="#000000" stroke-width="1"/>
</g>
<g id="casual">
<rect x="161" y="612" width="134" height="156" fill="#f8eed2" stroke-width="0"/>
<text x="210" y="628" font-family="Arial" font-size="11.25" font-weight="bold">casual</text>
<line x1="161" y1="632" x2="295" y2="632" stroke="#000000" stroke-width="1"/>
<text x="172" y="646" font-family="Arial" font-size="11.25">0</text>
<text x="172" y="660" font-family="Arial" font-size="11.25">0.1</text>
<text x="172" y="674" font-family="Arial" font-size="11.25">0.2</text>
<text x="172" y="688" font-family="Arial" font-size="11.25">0.3</text>
<text x="172" y="702" font-family="Arial" font-size="11.25">0.4</text>
<text x="172" y="716" font-family="Arial" font-size="11.25">0.5</text>
<text x="172" y="730" font-family="Arial" font-size="11.25">0.6</text>
<text x="172" y="744" font-family="Arial" font-size="11.25">0.7</text>
<text x="207" y="646" font-family="Arial" font-size="11.25">20.8</text>
<text x="207" y="660" font-family="Arial" font-size="11.25">30.0</text>
<text x="207" y="674" font-family="Arial" font-size="11.25">29.6</text>
<text x="207" y="688" font-family="Arial" font-size="11.25">9.07</text>
<text x="207" y="702" font-family="Arial" font-size="11.25">3.70</text>
<text x="207" y="716" font-family="Arial" font-size="11.25">4.45</text>
<text x="207" y="730" font-family="Arial" font-size="11.25">1.80</text>
<text x="207" y="744" font-family="Arial" font-size="11.25">0.58</text>
<rect x="234" y="632" width="61" height="116" fill="#c6bea8" stroke-width="0"/>
<line x1="275" y1="633" x2="275" y2="747" stroke="black" stroke-width="1" stroke-dasharray="3,3"/>
<rect x="234" y="638" width="34" height="7" fill="#000000" stroke-width="0"/>
<rect x="234" y="652" width="49" height="7" fill="#000000" stroke-width="0"/>
<rect x="234" y="666" width="48" height="7" fill="#000000" stroke-width="0"/>
<rect x="234" y="680" width="15" height="7" fill="#000000" stroke-width="0"/>
<rect x="234" y="694" width="6" height="7" fill="#000000" stroke-width="0"/>
<rect x="234" y="708" width="7" height="7" fill="#000000" stroke-width="0"/>
<rect x="234" y="722" width="3" height="7" fill="#000000" stroke-width="0"/>
<rect x="234" y="736" width="1" height="7" fill="#000000" stroke-width="0"/>
<rect x="234" y="632" width="61" height="116" fill-opacity="0" stroke="#000000" stroke-width="1"/>
<line x1="161" y1="748" x2="295" y2="748" stroke="#000000" stroke-width="1"/>
<text x="195" y="763" font-family="Arial" font-size="11.25">0.168 &#177; 0.15</text>
<rect x="161" y="612" width="134" height="156" fill-opacity="0" stroke="#000000" stroke-width="1"/>
</g>
<g id="cnt">
<rect x="599" y="990" width="134" height="296" fill="#f8eed2" stroke-width="0"/>
<text x="658" y="1006" font-family="Arial" font-size="11.25" font-weight="bold">cnt</text>
<line x1="599" y1="1010" x2="733" y2="1010" stroke="#000000" stroke-width="1"/>
<text x="610" y="1024" font-family="Arial" font-size="11.25">0</text>
<text x="610" y="1038" font-family="Arial" font-size="11.25">0.1</text>
<text x="610" y="1052" font-family="Arial" font-size="11.25">0.2</text>
<text x="610" y="1066" font-family="Arial" font-size="11.25">0.3</text>
<text x="610" y="1080" font-family="Arial" font-size="11.25">0.4</text>
<text x="610" y="1094" font-family="Arial" font-size="11.25">0.5</text>
<text x="610" y="1108" font-family="Arial" font-size="11.25">0.6</text>
<text x="610" y="1122" font-family="Arial" font-size="11.25">0.7</text>
<text x="610" y="1136" font-family="Arial" font-size="11.25">0.8</text>
<text x="610" y="1150" font-family="Arial" font-size="11.25">0.9</text>
<text x="610" y="1164" font-family="Arial" font-size="11.25">1</text>
<text x="610" y="1178" font-family="Arial" font-size="11.25">1.1</text>
<text x="610" y="1192" font-family="Arial" font-size="11.25">1.2</text>
<text x="610" y="1206" font-family="Arial" font-size="11.25">1.3</text>
<text x="610" y="1220" font-family="Arial" font-size="11.25">1.4</text>
<text x="610" y="1234" font-family="Arial" font-size="11.25">1.5</text>
<text x="610" y="1248" font-family="Arial" font-size="11.25">1.6</text>
<text x="610" y="1262" font-family="Arial" font-size="11.25">1.7</text>
<text x="645" y="1024" font-family="Arial" font-size="11.25">0.18</text>
<text x="645" y="1038" font-family="Arial" font-size="11.25">1.30</text>
<text x="645" y="1052" font-family="Arial" font-size="11.25">3.73</text>
<text x="645" y="1066" font-family="Arial" font-size="11.25">5.66</text>
<text x="645" y="1080" font-family="Arial" font-size="11.25">6.65</text>
<text x="645" y="1094" font-family="Arial" font-size="11.25">5.40</text>
<text x="645" y="1108" font-family="Arial" font-size="11.25">4.62</text>
<text x="645" y="1122" font-family="Arial" font-size="11.25">7.25</text>
<text x="645" y="1136" font-family="Arial" font-size="11.25">10.6</text>
<text x="645" y="1150" font-family="Arial" font-size="11.25">12.2</text>
<text x="645" y="1164" font-family="Arial" font-size="11.25">9.00</text>
<text x="645" y="1178" font-family="Arial" font-size="11.25">7.07</text>
<text x="645" y="1192" font-family="Arial" font-size="11.25">4.94</text>
<text x="645" y="1206" font-family="Arial" font-size="11.25">4.54</text>
<text x="645" y="1220" font-family="Arial" font-size="11.25">5.62</text>
<text x="645" y="1234" font-family="Arial" font-size="11.25">9.13</text>
<text x="645" y="1248" font-family="Arial" font-size="11.25">1.66</text>
<text x="645" y="1262" font-family="Arial" font-size="11.25">0.44</text>
<rect x="672" y="1010" width="61" height="256" fill="#c6bea8" stroke-width="0"/>
<rect x="672" y="1016" width="1" height="7" fill="#000000" stroke-width="0"/>
<rect x="672" y="1030" width="5" height="7" fill="#000000" stroke-width="0"/>
<rect x="672" y="1044" width="15" height="7" fill="#000000" stroke-width="0"/>
<rect x="672" y="1058" width="23" height="7" fill="#000000" stroke-width="0"/>
<rect x="672" y="1072" width="27" height="7" fill="#000000" stroke-width="0"/>
<rect x="672" y="1086" width="22" height="7" fill="#000000" stroke-width="0"/>
<rect x="672" y="1100" width="19" height="7" fill="#000000" stroke-width="0"/>
<rect x="672" y="1114" width="29" height="7" fill="#000000" stroke-width="0"/>
<rect x="672" y="1128" width="42" height="7" fill="#000000" stroke-width="0"/>
<rect x="672" y="1142" width="49" height="7" fill="#000000" stroke-width="0"/>
<rect x="672" y="1156" width="36" height="7" fill="#000000" stroke-width="0"/>
<rect x="672" y="1170" width="28" height="7" fill="#000000" stroke-width="0"/>
<rect x="672" y="1184" width="20" height="7" fill="#000000" stroke-width="0"/>
<rect x="672" y="1198" width="18" height="7" fill="#000000" stroke-width="0"/>
<rect x="672" y="1212" width="22" height="7" fill="#000000" stroke-width="0"/>
<rect x="672" y="1226" width="37" height="7" fill="#000000" stroke-width="0"/>
<rect x="672" y="1240" width="7" height="7" fill="#000000" stroke-width="0"/>
<rect x="672" y="1254" width="2" height="7" fill="#000000" stroke-width="0"/>
<rect x="672" y="1010" width="61" height="256" fill-opacity="0" stroke="#000000" stroke-width="1"/>
<line x1="599" y1="1266" x2="733" y2="1266" stroke="#000000" stroke-width="1"/>
<text x="633" y="1281" font-family="Arial" font-size="11.25">0.888 &#177; 0.39</text>
<rect x="599" y="990" width="134" height="296" fill-opacity="0" stroke="#000000" stroke-width="1"/>
</g>
<g id="atemp">
<rect x="959" y="108" width="134" height="156" fill="#f8eed2" stroke-width="0"/>
<text x="1009" y="124" font-family="Arial" font-size="11.25" font-weight="bold">atemp</text>
<line x1="959" y1="128" x2="1093" y2="128" stroke="#000000" stroke-width="1"/>
<text x="970" y="142" font-family="Arial" font-size="11.25">0.1</text>
<text x="970" y="156" font-family="Arial" font-size="11.25">0.2</text>
<text x="970" y="170" font-family="Arial" font-size="11.25">0.3</text>
<text x="970" y="184" font-family="Arial" font-size="11.25">0.4</text>
<text x="970" y="198" font-family="Arial" font-size="11.25">0.5</text>
<text x="970" y="212" font-family="Arial" font-size="11.25">0.6</text>
<text x="970" y="226" font-family="Arial" font-size="11.25">0.7</text>
<text x="970" y="240" font-family="Arial" font-size="11.25">0.8</text>
<text x="1005" y="142" font-family="Arial" font-size="11.25">1.20</text>
<text x="1005" y="156" font-family="Arial" font-size="11.25">8.20</text>
<text x="1005" y="170" font-family="Arial" font-size="11.25">18.8</text>
<text x="1005" y="184" font-family="Arial" font-size="11.25">17.2</text>
<text x="1005" y="198" font-family="Arial" font-size="11.25">17.2</text>
<text x="1005" y="212" font-family="Arial" font-size="11.25">19.4</text>
<text x="1005" y="226" font-family="Arial" font-size="11.25">15.8</text>
<text x="1005" y="240" font-family="Arial" font-size="11.25">2.20</text>
<rect x="1032" y="128" width="61" height="116" fill="#c6bea8" stroke-width="0"/>
<rect x="1032" y="134" width="3" height="7" fill="#000000" stroke-width="0"/>
<rect x="1032" y="148" width="20" height="7" fill="#000000" stroke-width="0"/>
<rect x="1032" y="162" width="46" height="7" fill="#000000" stroke-width="0"/>
<rect x="1032" y="176" width="42" height="7" fill="#000000" stroke-width="0"/>
<rect x="1032" y="190" width="42" height="7" fill="#000000" stroke-width="0"/>
<rect x="1032" y="204" width="47" height="7" fill="#000000" stroke-width="0"/>
<rect x="1032" y="218" width="39" height="7" fill="#000000" stroke-width="0"/>
<rect x="1032" y="232" width="5" height="7" fill="#000000" stroke-width="0"/>
<rect x="1032" y="128" width="61" height="116" fill-opacity="0" stroke="#000000" stroke-width="1"/>
<line x1="959" y1="244" x2="1093" y2="244" stroke="#000000" stroke-width="1"/>
<text x="993" y="259" font-family="Arial" font-size="11.25">0.473 &#177; 0.17</text>
<rect x="959" y="108" width="134" height="156" fill-opacity="0" stroke="#000000" stroke-width="1"/>
</g>
<g id="hum">
<rect x="713" y="94" width="134" height="184" fill="#f8eed2" stroke-width="0"/>
<text x="769" y="110" font-family="Arial" font-size="11.25" font-weight="bold">hum</text>
<line x1="713" y1="114" x2="847" y2="114" stroke="#000000" stroke-width="1"/>
<text x="724" y="128" font-family="Arial" font-size="11.25">0</text>
<text x="724" y="142" font-family="Arial" font-size="11.25">0.2</text>
<text x="724" y="156" font-family="Arial" font-size="11.25">0.3</text>
<text x="724" y="170" font-family="Arial" font-size="11.25">0.4</text>
<text x="724" y="184" font-family="Arial" font-size="11.25">0.5</text>
<text x="724" y="198" font-family="Arial" font-size="11.25">0.6</text>
<text x="724" y="212" font-family="Arial" font-size="11.25">0.7</text>
<text x="724" y="226" font-family="Arial" font-size="11.25">0.8</text>
<text x="724" y="240" font-family="Arial" font-size="11.25">0.9</text>
<text x="724" y="254" font-family="Arial" font-size="11.25">1</text>
<text x="759" y="128" font-family="Arial" font-size="11.25">0.20</text>
<text x="759" y="142" font-family="Arial" font-size="11.25">0.20</text>
<text x="759" y="156" font-family="Arial" font-size="11.25">1.40</text>
<text x="759" y="170" font-family="Arial" font-size="11.25">8.00</text>
<text x="759" y="184" font-family="Arial" font-size="11.25">21.2</text>
<text x="759" y="198" font-family="Arial" font-size="11.25">25.8</text>
<text x="759" y="212" font-family="Arial" font-size="11.25">23.2</text>
<text x="759" y="226" font-family="Arial" font-size="11.25">14.2</text>
<text x="759" y="240" font-family="Arial" font-size="11.25">5.40</text>
<text x="759" y="254" font-family="Arial" font-size="11.25">0.40</text>
<rect x="786" y="114" width="61" height="144" fill="#c6bea8" stroke-width="0"/>
<line x1="833" y1="115" x2="833" y2="257" stroke="black" stroke-width="1" stroke-dasharray="3,3"/>
<rect x="786" y="148" width="3" height="7" fill="#000000" stroke-width="0"/>
<rect x="786" y="162" width="15" height="7" fill="#000000" stroke-width="0"/>
<rect x="786" y="176" width="40" height="7" fill="#000000" stroke-width="0"/>
<rect x="786" y="190" width="49" height="7" fill="#000000" stroke-width="0"/>
<rect x="786" y="204" width="44" height="7" fill="#000000" stroke-width="0"/>
<rect x="786" y="218" width="27" height="7" fill="#000000" stroke-width="0"/>
<rect x="786" y="232" width="10" height="7" fill="#000000" stroke-width="0"/>
<rect x="786" y="246" width="1" height="7" fill="#000000" stroke-width="0"/>
<rect x="786" y="114" width="61" height="144" fill-opacity="0" stroke="#000000" stroke-width="1"/>
<line x1="713" y1="258" x2="847" y2="258" stroke="#000000" stroke-width="1"/>
<text x="747" y="273" font-family="Arial" font-size="11.25">0.626 &#177; 0.14</text>
<rect x="713" y="94" width="134" height="184" fill-opacity="0" stroke="#000000" stroke-width="1"/>
</g>
<g id="season">
<rect x="300" y="340" width="132" height="100" fill="#f8eed2" stroke-width="0"/>
<text x="346" y="356" font-family="Arial" font-size="11.25" font-weight="bold">season</text>
<line x1="300" y1="360" x2="432" y2="360" stroke="#000000" stroke-width="1"/>
<text x="311" y="374" font-family="Arial" font-size="11.25">1</text>
<text x="311" y="388" font-family="Arial" font-size="11.25">2</text>
<text x="311" y="402" font-family="Arial" font-size="11.25">3</text>
<text x="311" y="416" font-family="Arial" font-size="11.25">4</text>
<text x="344" y="374" font-family="Arial" font-size="11.25">25.6</text>
<text x="344" y="388" font-family="Arial" font-size="11.25">24.4</text>
<text x="344" y="402" font-family="Arial" font-size="11.25">26.2</text>
<text x="344" y="416" font-family="Arial" font-size="11.25">23.8</text>
<rect x="371" y="360" width="61" height="60" fill="#c6bea8" stroke-width="0"/>
<line x1="386" y1="361" x2="386" y2="419" stroke="black" stroke-width="1" stroke-dasharray="3,3"/>
<line x1="402" y1="361" x2="402" y2="419" stroke="black" stroke-width="1" stroke-dasharray="3,3"/>
<line x1="417" y1="361" x2="417" y2="419" stroke="black" stroke-width="1" stroke-dasharray="3,3"/>
<rect x="371" y="366" width="16" height="7" fill="#000000" stroke-width="0"/>
<rect x="371" y="380" width="15" height="7" fill="#000000" stroke-width="0"/>
<rect x="371" y="394" width="16" height="7" fill="#000000" stroke-width="0"/>
<rect x="371" y="408" width="15" height="7" fill="#000000" stroke-width="0"/>
<rect x="371" y="360" width="61" height="60" fill-opacity="0" stroke="#000000" stroke-width="1"/>
<line x1="300" y1="420" x2="432" y2="420" stroke="#000000" stroke-width="1"/>
<text x="340" y="435" font-family="Arial" font-size="11.25">2.48 &#177; 1.1</text>
<rect x="300" y="340" width="132" height="100" fill-opacity="0" stroke="#000000" stroke-width="1"/>
</g>
<g id="weathersit">
<rect x="492" y="185" width="132" height="86" fill="#f8eed2" stroke-width="0"/>
<text x="529" y="201" font-family="Arial" font-size="11.25" font-weight="bold">weathersit</text>
<line x1="492" y1="205" x2="624" y2="205" stroke="#000000" stroke-width="1"/>
<text x="503" y="219" font-family="Arial" font-size="11.25">1</text>
<text x="503" y="233" font-family="Arial" font-size="11.25">2</text>
<text x="503" y="247" font-family="Arial" font-size="11.25">3</text>
<text x="536" y="219" font-family="Arial" font-size="11.25">62.2</text>
<text x="536" y="233" font-family="Arial" font-size="11.25">34.6</text>
<text x="536" y="247" font-family="Arial" font-size="11.25">3.20</text>
<rect x="563" y="205" width="61" height="46" fill="#c6bea8" stroke-width="0"/>
<line x1="578" y1="206" x2="578" y2="250" stroke="black" stroke-width="1" stroke-dasharray="3,3"/>
<line x1="594" y1="206" x2="594" y2="250" stroke="black" stroke-width="1" stroke-dasharray="3,3"/>
<line x1="609" y1="206" x2="609" y2="250" stroke="black" stroke-width="1" stroke-dasharray="3,3"/>
<rect x="563" y="211" width="38" height="7" fill="#000000" stroke-width="0"/>
<rect x="563" y="225" width="21" height="7" fill="#000000" stroke-width="0"/>
<rect x="563" y="239" width="2" height="7" fill="#000000" stroke-width="0"/>
<rect x="563" y="205" width="61" height="46" fill-opacity="0" stroke="#000000" stroke-width="1"/>
<line x1="492" y1="251" x2="624" y2="251" stroke="#000000" stroke-width="1"/>
<text x="529" y="266" font-family="Arial" font-size="11.25">1.41 &#177; 0.55</text>
<rect x="492" y="185" width="132" height="86" fill-opacity="0" stroke="#000000" stroke-width="1"/>
</g>
<g id="FavorableWeather">
<rect x="846" y="437" width="132" height="86" fill="#f8eed2" stroke-width="0"/>
<text x="861" y="453" font-family="Arial" font-size="11.25" font-weight="bold">FavorableWeather</text>
<line x1="846" y1="457" x2="978" y2="457" stroke="#000000" stroke-width="1"/>
<text x="857" y="471" font-family="Arial" font-size="11.25">s1</text>
<text x="857" y="485" font-family="Arial" font-size="11.25">s2</text>
<text x="857" y="499" font-family="Arial" font-size="11.25">s3</text>
<text x="890" y="471" font-family="Arial" font-size="11.25">36.4</text>
<text x="890" y="485" font-family="Arial" font-size="11.25">28.4</text>
<text x="890" y="499" font-family="Arial" font-size="11.25">35.2</text>
<rect x="917" y="457" width="61" height="46" fill="#c6bea8" stroke-width="0"/>
<line x1="932" y1="458" x2="932" y2="502" stroke="black" stroke-width="1" stroke-dasharray="3,3"/>
<line x1="948" y1="458" x2="948" y2="502" stroke="black" stroke-width="1" stroke-dasharray="3,3"/>
<line x1="963" y1="458" x2="963" y2="502" stroke="black" stroke-width="1" stroke-dasharray="3,3"/>
<rect x="917" y="463" width="22" height="7" fill="#000000" stroke-width="0"/>
<rect x="917" y="477" width="17" height="7" fill="#000000" stroke-width="0"/>
<rect x="917" y="491" width="21" height="7" fill="#000000" stroke-width="0"/>
<rect x="917" y="457" width="61" height="46" fill-opacity="0" stroke="#000000" stroke-width="1"/>
<line x1="846" y1="503" x2="978" y2="503" stroke="#000000" stroke-width="1"/>
<text x="879" y="518" font-family="Arial" font-size="11.25">0.659 &#177; 0.28</text>
<rect x="846" y="437" width="132" height="86" fill-opacity="0" stroke="#000000" stroke-width="1"/>
</g>
<g id="registered">
<rect x="1007" y="773" width="134" height="254" fill="#f8eed2" stroke-width="0"/>
<text x="1046" y="789" font-family="Arial" font-size="11.25" font-weight="bold">registered</text>
<line x1="1007" y1="793" x2="1141" y2="793" stroke="#000000" stroke-width="1"/>
<text x="1018" y="807" font-family="Arial" font-size="11.25">0</text>
<text x="1018" y="821" font-family="Arial" font-size="11.25">0.1</text>
<text x="1018" y="835" font-family="Arial" font-size="11.25">0.2</text>
<text x="1018" y="849" font-family="Arial" font-size="11.25">0.3</text>
<text x="1018" y="863" font-family="Arial" font-size="11.25">0.4</text>
<text x="1018" y="877" font-family="Arial" font-size="11.25">0.5</text>
<text x="1018" y="891" font-family="Arial" font-size="11.25">0.6</text>
<text x="1018" y="905" font-family="Arial" font-size="11.25">0.7</text>
<text x="1018" y="919" font-family="Arial" font-size="11.25">0.8</text>
<text x="1018" y="933" font-family="Arial" font-size="11.25">0.9</text>
<text x="1018" y="947" font-family="Arial" font-size="11.25">1</text>
<text x="1018" y="961" font-family="Arial" font-size="11.25">1.1</text>
<text x="1018" y="975" font-family="Arial" font-size="11.25">1.2</text>
<text x="1018" y="989" font-family="Arial" font-size="11.25">1.3</text>
<text x="1018" y="1003" font-family="Arial" font-size="11.25">1.4</text>
<text x="1053" y="807" font-family="Arial" font-size="11.25">0.12</text>
<text x="1053" y="821" font-family="Arial" font-size="11.25">2.48</text>
<text x="1053" y="835" font-family="Arial" font-size="11.25">3.67</text>
<text x="1053" y="849" font-family="Arial" font-size="11.25">10.3</text>
<text x="1053" y="863" font-family="Arial" font-size="11.25">6.05</text>
<text x="1053" y="877" font-family="Arial" font-size="11.25">8.25</text>
<text x="1053" y="891" font-family="Arial" font-size="11.25">10.2</text>
<text x="1053" y="905" font-family="Arial" font-size="11.25">13.5</text>
<text x="1053" y="919" font-family="Arial" font-size="11.25">12.8</text>
<text x="1053" y="933" font-family="Arial" font-size="11.25">7.65</text>
<text x="1053" y="947" font-family="Arial" font-size="11.25">7.53</text>
<text x="1053" y="961" font-family="Arial" font-size="11.25">4.94</text>
<text x="1053" y="975" font-family="Arial" font-size="11.25">5.21</text>
<text x="1053" y="989" font-family="Arial" font-size="11.25">5.72</text>
<text x="1053" y="1003" font-family="Arial" font-size="11.25">1.69</text>
<rect x="1080" y="793" width="61" height="214" fill="#c6bea8" stroke-width="0"/>
<rect x="1080" y="813" width="9" height="7" fill="#000000" stroke-width="0"/>
<rect x="1080" y="827" width="13" height="7" fill="#000000" stroke-width="0"/>
<rect x="1080" y="841" width="37" height="7" fill="#000000" stroke-width="0"/>
<rect x="1080" y="855" width="22" height="7" fill="#000000" stroke-width="0"/>
<rect x="1080" y="869" width="30" height="7" fill="#000000" stroke-width="0"/>
<rect x="1080" y="883" width="37" height="7" fill="#000000" stroke-width="0"/>
<rect x="1080" y="897" width="49" height="7" fill="#000000" stroke-width="0"/>
<rect x="1080" y="911" width="46" height="7" fill="#000000" stroke-width="0"/>
<rect x="1080" y="925" width="28" height="7" fill="#000000" stroke-width="0"/>
<rect x="1080" y="939" width="27" height="7" fill="#000000" stroke-width="0"/>
<rect x="1080" y="953" width="18" height="7" fill="#000000" stroke-width="0"/>
<rect x="1080" y="967" width="19" height="7" fill="#000000" stroke-width="0"/>
<rect x="1080" y="981" width="21" height="7" fill="#000000" stroke-width="0"/>
<rect x="1080" y="995" width="6" height="7" fill="#000000" stroke-width="0"/>
<rect x="1080" y="793" width="61" height="214" fill-opacity="0" stroke="#000000" stroke-width="1"/>
<line x1="1007" y1="1007" x2="1141" y2="1007" stroke="#000000" stroke-width="1"/>
<text x="1041" y="1022" font-family="Arial" font-size="11.25">0.723 &#177; 0.32</text>
<rect x="1007" y="773" width="134" height="254" fill-opacity="0" stroke="#000000" stroke-width="1"/>
</g>

</svg>

