<?xml version="1.0"?>
<svg width="1334" height="1176" viewBox="0 0 1334 1176"
  xml:space="preserve"
  version="1.1"
  xmlns="http://www.w3.org/2000/svg">

<title>Graphic of net "C:\Users\Tanvi\Desktop\AI2\Data\Model2-with-manual-discretization" generated by an unlicensed user using Netica 6.05 on May 18, 2019 at 08:58:14 UTC.</title>

<polygon points="108.43,187.166 114.354,192.542 104,198" fill="#000000" stroke="none"/>
<polyline points="216,72 111,190" stroke="#000000" stroke-width="1" fill="none"/>
<polygon points="336.355,193.134 341.967,187.433 347,198" fill="#000000" stroke="none"/>
<polyline points="216,72 340,191" stroke="#000000" stroke-width="1" fill="none"/>
<polygon points="370.336,588.884 378.332,589.127 374,600" fill="#000000" stroke="none"/>
<polyline points="384,234 374,590" stroke="#000000" stroke-width="1" fill="none"/>
<polygon points="310.503,593.159 317.116,588.656 320,600" fill="#000000" stroke="none"/>
<polyline points="72,234 314,591" stroke="#000000" stroke-width="1" fill="none"/>
<polygon points="403.391,588.302 410.814,591.285 403,600" fill="#000000" stroke="none"/>
<polyline points="588,138 407,590" stroke="#000000" stroke-width="1" fill="none"/>
<polygon points="444.991,602.413 450.626,608.092 440,613" fill="#000000" stroke="none"/>
<polyline points="762,294 447,606" stroke="#000000" stroke-width="1" fill="none"/>
<polygon points="447.382,629.917 451.492,636.781 440,639" fill="#000000" stroke="none"/>
<polyline points="1008,300 449,634" stroke="#000000" stroke-width="1" fill="none"/>
<polygon points="448.774,644.253 451.701,651.698 440,652" fill="#000000" stroke="none"/>
<polyline points="1260,330 450,648" stroke="#000000" stroke-width="1" fill="none"/>
<polygon points="665.224,122.302 666.496,130.201 655,128" fill="#000000" stroke="none"/>
<polyline points="1044,66 665,126" stroke="#000000" stroke-width="1" fill="none"/>
<polygon points="836.027,230.966 841.064,237.182 830,241" fill="#000000" stroke="none"/>
<polyline points="1044,66 838,234" stroke="#000000" stroke-width="1" fill="none"/>
<polygon points="1015.78,224.507 1023.68,225.768 1018,236" fill="#000000" stroke="none"/>
<polyline points="1044,66 1020,226" stroke="#000000" stroke-width="1" fill="none"/>
<polygon points="1182.91,243.065 1189.08,237.971 1193,249" fill="#000000" stroke="none"/>
<polyline points="1044,66 1186,241" stroke="#000000" stroke-width="1" fill="none"/>
<polygon points="541.377,925.337 547.904,920.712 551,932" fill="#000000" stroke="none"/>
<polyline points="372,678 545,923" stroke="#000000" stroke-width="1" fill="none"/>
<polygon points="688.071,902.48 694.987,906.501 686,914" fill="#000000" stroke="none"/>
<polyline points="828,672 691,905" stroke="#000000" stroke-width="1" fill="none"/>
<polygon points="750.357,602.129 755.972,596.43 761,607" fill="#000000" stroke="none"/>
<polyline points="384,234 754,600" stroke="#000000" stroke-width="1" fill="none"/>
<polygon points="749.476,631.95 753.484,625.027 761,634" fill="#000000" stroke="none"/>
<polyline points="72,234 752,629" stroke="#000000" stroke-width="1" fill="none"/>
<polygon points="762.826,536.622 770.116,533.329 771,545" fill="#000000" stroke="none"/>
<polyline points="588,138 767,535" stroke="#000000" stroke-width="1" fill="none"/>
<polygon points="800.112,534.884 807.985,533.465 806,545" fill="#000000" stroke="none"/>
<polyline points="762,294 804,535" stroke="#000000" stroke-width="1" fill="none"/>
<polygon points="890.238,533.361 897.425,536.875 889,545" fill="#000000" stroke="none"/>
<polyline points="1008,300 894,536" stroke="#000000" stroke-width="1" fill="none"/>
<polygon points="902.124,609.025 907.101,615.288 896,619" fill="#000000" stroke="none"/>
<polyline points="1260,330 904,612" stroke="#000000" stroke-width="1" fill="none"/>
<g id="weekday">
<rect x="150" y="1" width="132" height="142" fill="#f8eed2" stroke-width="0"/>
<text x="192" y="17" font-family="Arial" font-size="11.25" font-weight="bold">weekday</text>
<line x1="150" y1="21" x2="282" y2="21" stroke="#000000" stroke-width="1"/>
<text x="161" y="35" font-family="Arial" font-size="11.25">0</text>
<text x="161" y="49" font-family="Arial" font-size="11.25">1</text>
<text x="161" y="63" font-family="Arial" font-size="11.25">2</text>
<text x="161" y="77" font-family="Arial" font-size="11.25">3</text>
<text x="161" y="91" font-family="Arial" font-size="11.25">4</text>
<text x="161" y="105" font-family="Arial" font-size="11.25">5</text>
<text x="161" y="119" font-family="Arial" font-size="11.25">6</text>
<text x="194" y="35" font-family="Arial" font-size="11.25">12.2</text>
<text x="194" y="49" font-family="Arial" font-size="11.25">14.2</text>
<text x="194" y="63" font-family="Arial" font-size="11.25">15.8</text>
<text x="194" y="77" font-family="Arial" font-size="11.25">14.2</text>
<text x="194" y="91" font-family="Arial" font-size="11.25">15.0</text>
<text x="194" y="105" font-family="Arial" font-size="11.25">13.0</text>
<text x="194" y="119" font-family="Arial" font-size="11.25">15.6</text>
<rect x="221" y="21" width="61" height="102" fill="#c6bea8" stroke-width="0"/>
<line x1="267" y1="22" x2="267" y2="122" stroke="black" stroke-width="1" stroke-dasharray="3,3"/>
<rect x="221" y="27" width="22" height="7" fill="#000000" stroke-width="0"/>
<rect x="221" y="41" width="26" height="7" fill="#000000" stroke-width="0"/>
<rect x="221" y="55" width="29" height="7" fill="#000000" stroke-width="0"/>
<rect x="221" y="69" width="26" height="7" fill="#000000" stroke-width="0"/>
<rect x="221" y="83" width="27" height="7" fill="#000000" stroke-width="0"/>
<rect x="221" y="97" width="24" height="7" fill="#000000" stroke-width="0"/>
<rect x="221" y="111" width="29" height="7" fill="#000000" stroke-width="0"/>
<rect x="221" y="21" width="61" height="102" fill-opacity="0" stroke="#000000" stroke-width="1"/>
<line x1="150" y1="123" x2="282" y2="123" stroke="#000000" stroke-width="1"/>
<text x="195" y="138" font-family="Arial" font-size="11.25">3.07 &#177; 2</text>
<rect x="150" y="1" width="132" height="142" fill-opacity="0" stroke="#000000" stroke-width="1"/>
</g>
<g id="workingday">
<rect x="6" y="198" width="132" height="72" fill="#f8eed2" stroke-width="0"/>
<text x="40" y="214" font-family="Arial" font-size="11.25" font-weight="bold">workingday</text>
<line x1="6" y1="218" x2="138" y2="218" stroke="#000000" stroke-width="1"/>
<text x="17" y="232" font-family="Arial" font-size="11.25">0</text>
<text x="17" y="246" font-family="Arial" font-size="11.25">1</text>
<text x="50" y="232" font-family="Arial" font-size="11.25">31.2</text>
<text x="50" y="246" font-family="Arial" font-size="11.25">68.8</text>
<rect x="77" y="218" width="61" height="32" fill="#c6bea8" stroke-width="0"/>
<line x1="92" y1="219" x2="92" y2="249" stroke="black" stroke-width="1" stroke-dasharray="3,3"/>
<line x1="108" y1="219" x2="108" y2="249" stroke="black" stroke-width="1" stroke-dasharray="3,3"/>
<line x1="123" y1="219" x2="123" y2="249" stroke="black" stroke-width="1" stroke-dasharray="3,3"/>
<rect x="77" y="224" width="19" height="7" fill="#000000" stroke-width="0"/>
<rect x="77" y="238" width="42" height="7" fill="#000000" stroke-width="0"/>
<rect x="77" y="218" width="61" height="32" fill-opacity="0" stroke="#000000" stroke-width="1"/>
<line x1="6" y1="250" x2="138" y2="250" stroke="#000000" stroke-width="1"/>
<text x="39" y="265" font-family="Arial" font-size="11.25">0.688 &#177; 0.46</text>
<rect x="6" y="198" width="132" height="72" fill-opacity="0" stroke="#000000" stroke-width="1"/>
</g>
<g id="holiday">
<rect x="318" y="198" width="132" height="72" fill="#f8eed2" stroke-width="0"/>
<text x="365" y="214" font-family="Arial" font-size="11.25" font-weight="bold">holiday</text>
<line x1="318" y1="218" x2="450" y2="218" stroke="#000000" stroke-width="1"/>
<text x="329" y="232" font-family="Arial" font-size="11.25">0</text>
<text x="329" y="246" font-family="Arial" font-size="11.25">1</text>
<text x="362" y="232" font-family="Arial" font-size="11.25">96.6</text>
<text x="362" y="246" font-family="Arial" font-size="11.25">3.40</text>
<rect x="389" y="218" width="61" height="32" fill="#c6bea8" stroke-width="0"/>
<line x1="404" y1="219" x2="404" y2="249" stroke="black" stroke-width="1" stroke-dasharray="3,3"/>
<line x1="420" y1="219" x2="420" y2="249" stroke="black" stroke-width="1" stroke-dasharray="3,3"/>
<line x1="435" y1="219" x2="435" y2="249" stroke="black" stroke-width="1" stroke-dasharray="3,3"/>
<rect x="389" y="224" width="59" height="7" fill="#000000" stroke-width="0"/>
<rect x="389" y="238" width="2" height="7" fill="#000000" stroke-width="0"/>
<rect x="389" y="218" width="61" height="32" fill-opacity="0" stroke="#000000" stroke-width="1"/>
<line x1="318" y1="250" x2="450" y2="250" stroke="#000000" stroke-width="1"/>
<text x="351" y="265" font-family="Arial" font-size="11.25">0.034 &#177; 0.18</text>
<rect x="318" y="198" width="132" height="72" fill-opacity="0" stroke="#000000" stroke-width="1"/>
</g>
<g id="season">
<rect x="978" y="16" width="132" height="100" fill="#f8eed2" stroke-width="0"/>
<text x="1024" y="32" font-family="Arial" font-size="11.25" font-weight="bold">season</text>
<line x1="978" y1="36" x2="1110" y2="36" stroke="#000000" stroke-width="1"/>
<text x="989" y="50" font-family="Arial" font-size="11.25">1</text>
<text x="989" y="64" font-family="Arial" font-size="11.25">2</text>
<text x="989" y="78" font-family="Arial" font-size="11.25">3</text>
<text x="989" y="92" font-family="Arial" font-size="11.25">4</text>
<text x="1022" y="50" font-family="Arial" font-size="11.25">25.6</text>
<text x="1022" y="64" font-family="Arial" font-size="11.25">24.4</text>
<text x="1022" y="78" font-family="Arial" font-size="11.25">26.2</text>
<text x="1022" y="92" font-family="Arial" font-size="11.25">23.8</text>
<rect x="1049" y="36" width="61" height="60" fill="#c6bea8" stroke-width="0"/>
<line x1="1064" y1="37" x2="1064" y2="95" stroke="black" stroke-width="1" stroke-dasharray="3,3"/>
<line x1="1080" y1="37" x2="1080" y2="95" stroke="black" stroke-width="1" stroke-dasharray="3,3"/>
<line x1="1095" y1="37" x2="1095" y2="95" stroke="black" stroke-width="1" stroke-dasharray="3,3"/>
<rect x="1049" y="42" width="16" height="7" fill="#000000" stroke-width="0"/>
<rect x="1049" y="56" width="15" height="7" fill="#000000" stroke-width="0"/>
<rect x="1049" y="70" width="16" height="7" fill="#000000" stroke-width="0"/>
<rect x="1049" y="84" width="15" height="7" fill="#000000" stroke-width="0"/>
<rect x="1049" y="36" width="61" height="60" fill-opacity="0" stroke="#000000" stroke-width="1"/>
<line x1="978" y1="96" x2="1110" y2="96" stroke="#000000" stroke-width="1"/>
<text x="1018" y="111" font-family="Arial" font-size="11.25">2.48 &#177; 1.1</text>
<rect x="978" y="16" width="132" height="100" fill-opacity="0" stroke="#000000" stroke-width="1"/>
</g>
<g id="casual">
<rect x="305" y="600" width="134" height="156" fill="#f8eed2" stroke-width="0"/>
<text x="354" y="616" font-family="Arial" font-size="11.25" font-weight="bold">casual</text>
<line x1="305" y1="620" x2="439" y2="620" stroke="#000000" stroke-width="1"/>
<text x="316" y="634" font-family="Arial" font-size="11.25">0</text>
<text x="316" y="648" font-family="Arial" font-size="11.25">0.1</text>
<text x="316" y="662" font-family="Arial" font-size="11.25">0.2</text>
<text x="316" y="676" font-family="Arial" font-size="11.25">0.3</text>
<text x="316" y="690" font-family="Arial" font-size="11.25">0.4</text>
<text x="316" y="704" font-family="Arial" font-size="11.25">0.5</text>
<text x="316" y="718" font-family="Arial" font-size="11.25">0.6</text>
<text x="316" y="732" font-family="Arial" font-size="11.25">0.7</text>
<text x="351" y="634" font-family="Arial" font-size="11.25">14.1</text>
<text x="351" y="648" font-family="Arial" font-size="11.25">23.2</text>
<text x="351" y="662" font-family="Arial" font-size="11.25">22.9</text>
<text x="351" y="676" font-family="Arial" font-size="11.25">11.0</text>
<text x="351" y="690" font-family="Arial" font-size="11.25">8.00</text>
<text x="351" y="704" font-family="Arial" font-size="11.25">8.35</text>
<text x="351" y="718" font-family="Arial" font-size="11.25">6.53</text>
<text x="351" y="732" font-family="Arial" font-size="11.25">5.95</text>
<rect x="378" y="620" width="61" height="116" fill="#c6bea8" stroke-width="0"/>
<line x1="431" y1="621" x2="431" y2="735" stroke="black" stroke-width="1" stroke-dasharray="3,3"/>
<rect x="378" y="626" width="30" height="7" fill="#000000" stroke-width="0"/>
<rect x="378" y="640" width="49" height="7" fill="#000000" stroke-width="0"/>
<rect x="378" y="654" width="48" height="7" fill="#000000" stroke-width="0"/>
<rect x="378" y="668" width="23" height="7" fill="#000000" stroke-width="0"/>
<rect x="378" y="682" width="17" height="7" fill="#000000" stroke-width="0"/>
<rect x="378" y="696" width="18" height="7" fill="#000000" stroke-width="0"/>
<rect x="378" y="710" width="14" height="7" fill="#000000" stroke-width="0"/>
<rect x="378" y="724" width="13" height="7" fill="#000000" stroke-width="0"/>
<rect x="378" y="620" width="61" height="116" fill-opacity="0" stroke="#000000" stroke-width="1"/>
<line x1="305" y1="736" x2="439" y2="736" stroke="#000000" stroke-width="1"/>
<text x="343" y="751" font-family="Arial" font-size="11.25">0.257 &#177; 0.2</text>
<rect x="305" y="600" width="134" height="156" fill-opacity="0" stroke="#000000" stroke-width="1"/>
</g>
<g id="weathersit">
<rect x="522" y="95" width="132" height="86" fill="#f8eed2" stroke-width="0"/>
<text x="559" y="111" font-family="Arial" font-size="11.25" font-weight="bold">weathersit</text>
<line x1="522" y1="115" x2="654" y2="115" stroke="#000000" stroke-width="1"/>
<text x="533" y="129" font-family="Arial" font-size="11.25">1</text>
<text x="533" y="143" font-family="Arial" font-size="11.25">2</text>
<text x="533" y="157" font-family="Arial" font-size="11.25">3</text>
<text x="566" y="129" font-family="Arial" font-size="11.25">62.2</text>
<text x="566" y="143" font-family="Arial" font-size="11.25">34.6</text>
<text x="566" y="157" font-family="Arial" font-size="11.25">3.20</text>
<rect x="593" y="115" width="61" height="46" fill="#c6bea8" stroke-width="0"/>
<line x1="608" y1="116" x2="608" y2="160" stroke="black" stroke-width="1" stroke-dasharray="3,3"/>
<line x1="624" y1="116" x2="624" y2="160" stroke="black" stroke-width="1" stroke-dasharray="3,3"/>
<line x1="639" y1="116" x2="639" y2="160" stroke="black" stroke-width="1" stroke-dasharray="3,3"/>
<rect x="593" y="121" width="38" height="7" fill="#000000" stroke-width="0"/>
<rect x="593" y="135" width="21" height="7" fill="#000000" stroke-width="0"/>
<rect x="593" y="149" width="2" height="7" fill="#000000" stroke-width="0"/>
<rect x="593" y="115" width="61" height="46" fill-opacity="0" stroke="#000000" stroke-width="1"/>
<line x1="522" y1="161" x2="654" y2="161" stroke="#000000" stroke-width="1"/>
<text x="559" y="176" font-family="Arial" font-size="11.25">1.41 &#177; 0.55</text>
<rect x="522" y="95" width="132" height="86" fill-opacity="0" stroke="#000000" stroke-width="1"/>
</g>
<g id="atemp">
<rect x="695" y="216" width="134" height="156" fill="#f8eed2" stroke-width="0"/>
<text x="745" y="232" font-family="Arial" font-size="11.25" font-weight="bold">atemp</text>
<line x1="695" y1="236" x2="829" y2="236" stroke="#000000" stroke-width="1"/>
<text x="706" y="250" font-family="Arial" font-size="11.25">0.1</text>
<text x="706" y="264" font-family="Arial" font-size="11.25">0.2</text>
<text x="706" y="278" font-family="Arial" font-size="11.25">0.3</text>
<text x="706" y="292" font-family="Arial" font-size="11.25">0.4</text>
<text x="706" y="306" font-family="Arial" font-size="11.25">0.5</text>
<text x="706" y="320" font-family="Arial" font-size="11.25">0.6</text>
<text x="706" y="334" font-family="Arial" font-size="11.25">0.7</text>
<text x="706" y="348" font-family="Arial" font-size="11.25">0.8</text>
<text x="741" y="250" font-family="Arial" font-size="11.25">1.20</text>
<text x="741" y="264" font-family="Arial" font-size="11.25">8.20</text>
<text x="741" y="278" font-family="Arial" font-size="11.25">18.8</text>
<text x="741" y="292" font-family="Arial" font-size="11.25">17.2</text>
<text x="741" y="306" font-family="Arial" font-size="11.25">17.2</text>
<text x="741" y="320" font-family="Arial" font-size="11.25">19.4</text>
<text x="741" y="334" font-family="Arial" font-size="11.25">15.8</text>
<text x="741" y="348" font-family="Arial" font-size="11.25">2.20</text>
<rect x="768" y="236" width="61" height="116" fill="#c6bea8" stroke-width="0"/>
<rect x="768" y="242" width="3" height="7" fill="#000000" stroke-width="0"/>
<rect x="768" y="256" width="20" height="7" fill="#000000" stroke-width="0"/>
<rect x="768" y="270" width="46" height="7" fill="#000000" stroke-width="0"/>
<rect x="768" y="284" width="42" height="7" fill="#000000" stroke-width="0"/>
<rect x="768" y="298" width="42" height="7" fill="#000000" stroke-width="0"/>
<rect x="768" y="312" width="47" height="7" fill="#000000" stroke-width="0"/>
<rect x="768" y="326" width="39" height="7" fill="#000000" stroke-width="0"/>
<rect x="768" y="340" width="5" height="7" fill="#000000" stroke-width="0"/>
<rect x="768" y="236" width="61" height="116" fill-opacity="0" stroke="#000000" stroke-width="1"/>
<line x1="695" y1="352" x2="829" y2="352" stroke="#000000" stroke-width="1"/>
<text x="729" y="367" font-family="Arial" font-size="11.25">0.473 &#177; 0.17</text>
<rect x="695" y="216" width="134" height="156" fill-opacity="0" stroke="#000000" stroke-width="1"/>
</g>
<g id="windspeed">
<rect x="941" y="236" width="134" height="128" fill="#f8eed2" stroke-width="0"/>
<text x="978" y="252" font-family="Arial" font-size="11.25" font-weight="bold">windspeed</text>
<line x1="941" y1="256" x2="1075" y2="256" stroke="#000000" stroke-width="1"/>
<text x="952" y="270" font-family="Arial" font-size="11.25">0</text>
<text x="952" y="284" font-family="Arial" font-size="11.25">0.1</text>
<text x="952" y="298" font-family="Arial" font-size="11.25">0.2</text>
<text x="952" y="312" font-family="Arial" font-size="11.25">0.3</text>
<text x="952" y="326" font-family="Arial" font-size="11.25">0.4</text>
<text x="952" y="340" font-family="Arial" font-size="11.25">0.5</text>
<text x="987" y="270" font-family="Arial" font-size="11.25">1.00</text>
<text x="987" y="284" font-family="Arial" font-size="11.25">31.2</text>
<text x="987" y="298" font-family="Arial" font-size="11.25">48.6</text>
<text x="987" y="312" font-family="Arial" font-size="11.25">15.0</text>
<text x="987" y="326" font-family="Arial" font-size="11.25">4.00</text>
<text x="987" y="340" font-family="Arial" font-size="11.25">0.20</text>
<rect x="1014" y="256" width="61" height="88" fill="#c6bea8" stroke-width="0"/>
<line x1="1039" y1="257" x2="1039" y2="343" stroke="black" stroke-width="1" stroke-dasharray="3,3"/>
<line x1="1064" y1="257" x2="1064" y2="343" stroke="black" stroke-width="1" stroke-dasharray="3,3"/>
<rect x="1014" y="262" width="1" height="7" fill="#000000" stroke-width="0"/>
<rect x="1014" y="276" width="31" height="7" fill="#000000" stroke-width="0"/>
<rect x="1014" y="290" width="49" height="7" fill="#000000" stroke-width="0"/>
<rect x="1014" y="304" width="15" height="7" fill="#000000" stroke-width="0"/>
<rect x="1014" y="318" width="4" height="7" fill="#000000" stroke-width="0"/>
<rect x="1014" y="256" width="61" height="88" fill-opacity="0" stroke="#000000" stroke-width="1"/>
<line x1="941" y1="344" x2="1075" y2="344" stroke="#000000" stroke-width="1"/>
<text x="975" y="359" font-family="Arial" font-size="11.25">0.19 &#177; 0.082</text>
<rect x="941" y="236" width="134" height="128" fill-opacity="0" stroke="#000000" stroke-width="1"/>
</g>
<g id="hum">
<rect x="1193" y="238" width="134" height="184" fill="#f8eed2" stroke-width="0"/>
<text x="1249" y="254" font-family="Arial" font-size="11.25" font-weight="bold">hum</text>
<line x1="1193" y1="258" x2="1327" y2="258" stroke="#000000" stroke-width="1"/>
<text x="1204" y="272" font-family="Arial" font-size="11.25">0</text>
<text x="1204" y="286" font-family="Arial" font-size="11.25">0.2</text>
<text x="1204" y="300" font-family="Arial" font-size="11.25">0.3</text>
<text x="1204" y="314" font-family="Arial" font-size="11.25">0.4</text>
<text x="1204" y="328" font-family="Arial" font-size="11.25">0.5</text>
<text x="1204" y="342" font-family="Arial" font-size="11.25">0.6</text>
<text x="1204" y="356" font-family="Arial" font-size="11.25">0.7</text>
<text x="1204" y="370" font-family="Arial" font-size="11.25">0.8</text>
<text x="1204" y="384" font-family="Arial" font-size="11.25">0.9</text>
<text x="1204" y="398" font-family="Arial" font-size="11.25">1</text>
<text x="1239" y="272" font-family="Arial" font-size="11.25">0.20</text>
<text x="1239" y="286" font-family="Arial" font-size="11.25">0.20</text>
<text x="1239" y="300" font-family="Arial" font-size="11.25">1.40</text>
<text x="1239" y="314" font-family="Arial" font-size="11.25">8.00</text>
<text x="1239" y="328" font-family="Arial" font-size="11.25">21.2</text>
<text x="1239" y="342" font-family="Arial" font-size="11.25">25.8</text>
<text x="1239" y="356" font-family="Arial" font-size="11.25">23.2</text>
<text x="1239" y="370" font-family="Arial" font-size="11.25">14.2</text>
<text x="1239" y="384" font-family="Arial" font-size="11.25">5.40</text>
<text x="1239" y="398" font-family="Arial" font-size="11.25">0.40</text>
<rect x="1266" y="258" width="61" height="144" fill="#c6bea8" stroke-width="0"/>
<line x1="1313" y1="259" x2="1313" y2="401" stroke="black" stroke-width="1" stroke-dasharray="3,3"/>
<rect x="1266" y="292" width="3" height="7" fill="#000000" stroke-width="0"/>
<rect x="1266" y="306" width="15" height="7" fill="#000000" stroke-width="0"/>
<rect x="1266" y="320" width="40" height="7" fill="#000000" stroke-width="0"/>
<rect x="1266" y="334" width="49" height="7" fill="#000000" stroke-width="0"/>
<rect x="1266" y="348" width="44" height="7" fill="#000000" stroke-width="0"/>
<rect x="1266" y="362" width="27" height="7" fill="#000000" stroke-width="0"/>
<rect x="1266" y="376" width="10" height="7" fill="#000000" stroke-width="0"/>
<rect x="1266" y="390" width="1" height="7" fill="#000000" stroke-width="0"/>
<rect x="1266" y="258" width="61" height="144" fill-opacity="0" stroke="#000000" stroke-width="1"/>
<line x1="1193" y1="402" x2="1327" y2="402" stroke="#000000" stroke-width="1"/>
<text x="1227" y="417" font-family="Arial" font-size="11.25">0.626 &#177; 0.14</text>
<rect x="1193" y="238" width="134" height="184" fill-opacity="0" stroke="#000000" stroke-width="1"/>
</g>
<g id="cnt">
<rect x="551" y="878" width="134" height="296" fill="#f8eed2" stroke-width="0"/>
<text x="610" y="894" font-family="Arial" font-size="11.25" font-weight="bold">cnt</text>
<line x1="551" y1="898" x2="685" y2="898" stroke="#000000" stroke-width="1"/>
<text x="562" y="912" font-family="Arial" font-size="11.25">0</text>
<text x="562" y="926" font-family="Arial" font-size="11.25">0.1</text>
<text x="562" y="940" font-family="Arial" font-size="11.25">0.2</text>
<text x="562" y="954" font-family="Arial" font-size="11.25">0.3</text>
<text x="562" y="968" font-family="Arial" font-size="11.25">0.4</text>
<text x="562" y="982" font-family="Arial" font-size="11.25">0.5</text>
<text x="562" y="996" font-family="Arial" font-size="11.25">0.6</text>
<text x="562" y="1010" font-family="Arial" font-size="11.25">0.7</text>
<text x="562" y="1024" font-family="Arial" font-size="11.25">0.8</text>
<text x="562" y="1038" font-family="Arial" font-size="11.25">0.9</text>
<text x="562" y="1052" font-family="Arial" font-size="11.25">1</text>
<text x="562" y="1066" font-family="Arial" font-size="11.25">1.1</text>
<text x="562" y="1080" font-family="Arial" font-size="11.25">1.2</text>
<text x="562" y="1094" font-family="Arial" font-size="11.25">1.3</text>
<text x="562" y="1108" font-family="Arial" font-size="11.25">1.4</text>
<text x="562" y="1122" font-family="Arial" font-size="11.25">1.5</text>
<text x="562" y="1136" font-family="Arial" font-size="11.25">1.6</text>
<text x="562" y="1150" font-family="Arial" font-size="11.25">1.7</text>
<text x="597" y="912" font-family="Arial" font-size="11.25">1.60</text>
<text x="597" y="926" font-family="Arial" font-size="11.25">1.76</text>
<text x="597" y="940" font-family="Arial" font-size="11.25">2.84</text>
<text x="597" y="954" font-family="Arial" font-size="11.25">3.65</text>
<text x="597" y="968" font-family="Arial" font-size="11.25">4.51</text>
<text x="597" y="982" font-family="Arial" font-size="11.25">4.51</text>
<text x="597" y="996" font-family="Arial" font-size="11.25">4.85</text>
<text x="597" y="1010" font-family="Arial" font-size="11.25">6.51</text>
<text x="597" y="1024" font-family="Arial" font-size="11.25">8.38</text>
<text x="597" y="1038" font-family="Arial" font-size="11.25">10.3</text>
<text x="597" y="1052" font-family="Arial" font-size="11.25">8.87</text>
<text x="597" y="1066" font-family="Arial" font-size="11.25">8.69</text>
<text x="597" y="1080" font-family="Arial" font-size="11.25">6.68</text>
<text x="597" y="1094" font-family="Arial" font-size="11.25">6.29</text>
<text x="597" y="1108" font-family="Arial" font-size="11.25">6.18</text>
<text x="597" y="1122" font-family="Arial" font-size="11.25">8.24</text>
<text x="597" y="1136" font-family="Arial" font-size="11.25">3.81</text>
<text x="597" y="1150" font-family="Arial" font-size="11.25">2.35</text>
<rect x="624" y="898" width="61" height="256" fill="#c6bea8" stroke-width="0"/>
<rect x="624" y="904" width="8" height="7" fill="#000000" stroke-width="0"/>
<rect x="624" y="918" width="8" height="7" fill="#000000" stroke-width="0"/>
<rect x="624" y="932" width="13" height="7" fill="#000000" stroke-width="0"/>
<rect x="624" y="946" width="17" height="7" fill="#000000" stroke-width="0"/>
<rect x="624" y="960" width="21" height="7" fill="#000000" stroke-width="0"/>
<rect x="624" y="974" width="21" height="7" fill="#000000" stroke-width="0"/>
<rect x="624" y="988" width="23" height="7" fill="#000000" stroke-width="0"/>
<rect x="624" y="1002" width="31" height="7" fill="#000000" stroke-width="0"/>
<rect x="624" y="1016" width="40" height="7" fill="#000000" stroke-width="0"/>
<rect x="624" y="1030" width="49" height="7" fill="#000000" stroke-width="0"/>
<rect x="624" y="1044" width="42" height="7" fill="#000000" stroke-width="0"/>
<rect x="624" y="1058" width="41" height="7" fill="#000000" stroke-width="0"/>
<rect x="624" y="1072" width="32" height="7" fill="#000000" stroke-width="0"/>
<rect x="624" y="1086" width="30" height="7" fill="#000000" stroke-width="0"/>
<rect x="624" y="1100" width="29" height="7" fill="#000000" stroke-width="0"/>
<rect x="624" y="1114" width="39" height="7" fill="#000000" stroke-width="0"/>
<rect x="624" y="1128" width="18" height="7" fill="#000000" stroke-width="0"/>
<rect x="624" y="1142" width="11" height="7" fill="#000000" stroke-width="0"/>
<rect x="624" y="898" width="61" height="256" fill-opacity="0" stroke="#000000" stroke-width="1"/>
<line x1="551" y1="1154" x2="685" y2="1154" stroke="#000000" stroke-width="1"/>
<text x="589" y="1169" font-family="Arial" font-size="11.25">0.95 &#177; 0.42</text>
<rect x="551" y="878" width="134" height="296" fill-opacity="0" stroke="#000000" stroke-width="1"/>
</g>
<g id="registered">
<rect x="761" y="545" width="134" height="254" fill="#f8eed2" stroke-width="0"/>
<text x="800" y="561" font-family="Arial" font-size="11.25" font-weight="bold">registered</text>
<line x1="761" y1="565" x2="895" y2="565" stroke="#000000" stroke-width="1"/>
<text x="772" y="579" font-family="Arial" font-size="11.25">0</text>
<text x="772" y="593" font-family="Arial" font-size="11.25">0.1</text>
<text x="772" y="607" font-family="Arial" font-size="11.25">0.2</text>
<text x="772" y="621" font-family="Arial" font-size="11.25">0.3</text>
<text x="772" y="635" font-family="Arial" font-size="11.25">0.4</text>
<text x="772" y="649" font-family="Arial" font-size="11.25">0.5</text>
<text x="772" y="663" font-family="Arial" font-size="11.25">0.6</text>
<text x="772" y="677" font-family="Arial" font-size="11.25">0.7</text>
<text x="772" y="691" font-family="Arial" font-size="11.25">0.8</text>
<text x="772" y="705" font-family="Arial" font-size="11.25">0.9</text>
<text x="772" y="719" font-family="Arial" font-size="11.25">1</text>
<text x="772" y="733" font-family="Arial" font-size="11.25">1.1</text>
<text x="772" y="747" font-family="Arial" font-size="11.25">1.2</text>
<text x="772" y="761" font-family="Arial" font-size="11.25">1.3</text>
<text x="772" y="775" font-family="Arial" font-size="11.25">1.4</text>
<text x="807" y="579" font-family="Arial" font-size="11.25">3.08</text>
<text x="807" y="593" font-family="Arial" font-size="11.25">3.59</text>
<text x="807" y="607" font-family="Arial" font-size="11.25">4.07</text>
<text x="807" y="621" font-family="Arial" font-size="11.25">6.76</text>
<text x="807" y="635" font-family="Arial" font-size="11.25">5.12</text>
<text x="807" y="649" font-family="Arial" font-size="11.25">7.27</text>
<text x="807" y="663" font-family="Arial" font-size="11.25">8.36</text>
<text x="807" y="677" font-family="Arial" font-size="11.25">10.6</text>
<text x="807" y="691" font-family="Arial" font-size="11.25">11.2</text>
<text x="807" y="705" font-family="Arial" font-size="11.25">6.99</text>
<text x="807" y="719" font-family="Arial" font-size="11.25">8.70</text>
<text x="807" y="733" font-family="Arial" font-size="11.25">6.87</text>
<text x="807" y="747" font-family="Arial" font-size="11.25">6.88</text>
<text x="807" y="761" font-family="Arial" font-size="11.25">6.38</text>
<text x="807" y="775" font-family="Arial" font-size="11.25">4.20</text>
<rect x="834" y="565" width="61" height="214" fill="#c6bea8" stroke-width="0"/>
<rect x="834" y="571" width="13" height="7" fill="#000000" stroke-width="0"/>
<rect x="834" y="585" width="15" height="7" fill="#000000" stroke-width="0"/>
<rect x="834" y="599" width="17" height="7" fill="#000000" stroke-width="0"/>
<rect x="834" y="613" width="29" height="7" fill="#000000" stroke-width="0"/>
<rect x="834" y="627" width="22" height="7" fill="#000000" stroke-width="0"/>
<rect x="834" y="641" width="31" height="7" fill="#000000" stroke-width="0"/>
<rect x="834" y="655" width="36" height="7" fill="#000000" stroke-width="0"/>
<rect x="834" y="669" width="45" height="7" fill="#000000" stroke-width="0"/>
<rect x="834" y="683" width="48" height="7" fill="#000000" stroke-width="0"/>
<rect x="834" y="697" width="30" height="7" fill="#000000" stroke-width="0"/>
<rect x="834" y="711" width="37" height="7" fill="#000000" stroke-width="0"/>
<rect x="834" y="725" width="29" height="7" fill="#000000" stroke-width="0"/>
<rect x="834" y="739" width="29" height="7" fill="#000000" stroke-width="0"/>
<rect x="834" y="753" width="27" height="7" fill="#000000" stroke-width="0"/>
<rect x="834" y="767" width="18" height="7" fill="#000000" stroke-width="0"/>
<rect x="834" y="565" width="61" height="214" fill-opacity="0" stroke="#000000" stroke-width="1"/>
<line x1="761" y1="779" x2="895" y2="779" stroke="#000000" stroke-width="1"/>
<text x="795" y="794" font-family="Arial" font-size="11.25">0.752 &#177; 0.37</text>
<rect x="761" y="545" width="134" height="254" fill-opacity="0" stroke="#000000" stroke-width="1"/>
</g>

</svg>

